<svg xmlns="http://www.w3.org/2000/svg" width="180" height="60" viewBox="0,0,180,60"><rect width="100%" height="100%" fill="#eef3fc"/><path fill="#d7315a" d="M92.08 46.08L92.16 46.16L92.13 46.13Q95.30 41.88 102.00 33.96L101.91 33.87L101.99 33.95Q96.03 34.12 92.26 32.75L92.28 32.76L92.35 32.83Q91.58 31.30 90.82 29.90L90.90 29.98L90.85 29.93Q95.01 31.50 99.46 31.54L99.31 31.39L99.35 31.42Q103.80 31.45 107.98 30.39L108.05 30.45L108.10 30.50Q107.57 31.04 107.31 31.57L107.40 31.67L107.29 31.56Q104.86 33.89 102.05 37.51L102.05 37.51L97.03 43.61L97.10 43.68Q99.37 43.51 101.62 43.59L101.71 43.68L101.68 43.65Q103.84 43.67 106.08 44.06L106.02 44.00L106.11 44.08Q106.27 44.70 106.99 46.72L106.95 46.67L106.94 46.67Q103.15 45.77 99.15 45.88L99.11 45.84L99.21 45.94Q95.32 46.12 91.66 47.30L91.53 47.17L91.51 47.15Q91.62 47.03 92.07 46.08ZM91.02 47.83L91.07 47.89L90.90 47.72Q91.74 47.46 93.34 47.04L93.32 47.02L93.34 47.03Q93.07 47.22 92.65 47.64L92.77 47.76L92.69 47.68Q92.41 48.20 91.80 49.34L91.90 49.44L91.79 49.34Q96.53 48.01 101.51 48.17L101.64 48.29L101.50 48.16Q106.60 48.45 111.16 50.32L111.09 50.24L111.11 50.27Q109.60 48.34 108.69 46.28L108.67 46.26L108.69 46.28Q108.04 46.09 106.97 45.86L107.01 45.90L106.90 45.78Q106.69 45.04 106.31 43.60L106.37 43.66L106.42 43.71Q104.77 43.27 101.19 43.16L101.27 43.24L101.14 43.12Q103.62 39.89 108.65 33.53L108.58 33.45L108.59 33.47Q108.88 32.77 109.56 31.44L109.50 31.37L107.26 32.18L107.30 32.22Q107.47 32.23 107.62 32.12L107.49 31.98L107.66 31.78L107.74 31.86Q108.10 30.69 108.67 29.74L108.79 29.86L108.64 29.71Q104.06 31.15 99.34 31.07L99.35 31.08L99.29 31.02Q94.51 30.97 90.02 29.14L90.12 29.24L90.13 29.25Q91.31 31.12 92.11 33.17L92.07 33.12L91.97 33.03Q92.85 33.38 93.92 33.64L93.98 33.71L93.91 33.64Q94.09 34.32 94.40 35.76L94.40 35.76L94.42 35.78Q96.05 36.08 99.36 36.23L99.33 36.20L99.33 36.20Q96.93 39.51 91.75 45.94L91.75 45.94L91.71 45.90Q91.57 46.60 91.00 47.82Z"/><path d="M19 9 C90 22,73 29,173 46" stroke="#d453b4" fill="none"/><path fill="#ec5fa5" d="M24.06 45.04L24.15 45.13L22.11 45.38L22.01 45.27Q21.53 45.25 20.56 45.30L20.57 45.32L20.63 45.38Q19.58 45.36 19.09 45.36L19.08 45.35L19.22 45.49Q17.51 45.42 16.48 44.58L16.58 44.68L16.43 44.53Q17.36 43.55 19.00 41.42L18.96 41.39L18.95 41.38Q20.12 42.85 22.32 42.62L22.47 42.77L22.35 42.64Q23.30 42.57 23.95 41.92L23.93 41.90L23.93 41.90Q24.50 41.18 24.39 40.31L24.44 40.35L24.38 40.30Q24.37 35.79 24.45 31.23L24.37 31.15L24.43 31.21Q24.52 26.66 25.05 22.05L25.02 22.02L24.94 21.93Q26.87 21.74 29.01 20.71L29.02 20.72L29.10 20.81Q27.16 27.47 27.16 34.70L27.18 34.72L27.28 34.82Q27.18 38.27 27.64 41.77L27.72 41.85L27.66 41.79Q27.78 42.17 27.78 42.51L27.72 42.46L27.76 42.50Q27.73 43.04 27.51 43.57L27.45 43.51L27.59 43.66Q26.93 44.83 24.11 45.09ZM29.04 47.93L29.06 47.95L29.34 47.89L29.67 47.80L29.94 47.68L29.92 47.66Q30.36 47.53 30.44 47.42L30.29 47.27L30.30 47.28Q30.59 46.20 30.32 45.21L30.19 45.07L30.19 45.08Q28.89 39.32 29.15 32.96L29.15 32.96L29.23 33.04Q29.47 26.92 31.26 21.02L31.29 21.05L31.14 20.90Q30.43 21.72 29.18 22.44L29.01 22.28L29.11 22.38Q29.36 21.68 29.78 20.15L29.73 20.11L29.63 20.00Q27.15 21.37 24.48 21.67L24.51 21.70L24.52 21.70Q24.27 26.21 24.19 31.16L24.15 31.12L24.08 31.05Q24.02 36.97 24.10 40.40L24.11 40.40L24.11 40.40Q24.22 42.23 22.47 42.38L22.35 42.26L22.42 42.33Q20.68 42.42 19.00 40.78L19.06 40.84L19.01 40.79Q17.03 43.38 16.08 44.94L15.99 44.85L15.99 44.85Q16.65 45.51 17.68 45.74L17.75 45.81L17.73 45.79Q17.53 45.82 17.26 46.05L17.31 46.09L17.38 46.16Q18.84 47.13 20.82 47.40L20.75 47.33L20.79 47.37Q21.04 47.27 24.33 47.58L24.39 47.63L24.37 47.61Q27.74 47.99 29.11 47.99Z"/><path fill="#e3aa72" d="M151.55 34.85L151.57 34.86L151.54 34.83Q149.11 34.80 147.78 36.02L147.69 35.93L147.75 35.99Q146.49 37.28 146.80 39.79L146.73 39.73L146.79 39.79Q146.94 42.15 148.16 43.41L148.20 43.45L148.20 43.45Q149.29 44.80 151.42 44.72L151.54 44.84L151.43 44.73Q151.97 44.70 152.16 44.70L152.24 44.79L152.12 44.66Q155.76 44.16 155.88 39.55L155.88 39.55L155.86 39.53Q155.95 37.19 155.27 36.39L155.26 36.38L155.24 36.36Q154.08 34.98 151.53 34.82ZM154.93 46.64L154.93 46.64L154.88 46.58Q153.59 47.20 152.03 47.12L152.06 47.15L151.94 47.03Q148.32 47.45 147.03 44.86L146.94 44.77L146.89 44.73Q146.77 50.13 145.44 54.39L145.34 54.29L145.37 54.32Q143.71 54.94 142.07 55.67L141.99 55.58L142.01 55.60Q144.50 49.57 144.23 42.60L144.18 42.55L144.32 42.69Q144.13 35.91 141.24 29.86L141.07 29.69L141.11 29.74Q143.16 31.02 144.88 31.48L144.73 31.34L145.20 32.76L145.28 32.84Q145.45 33.23 145.71 34.33L145.71 34.33L145.63 34.25Q146.80 32.33 150.37 32.14L150.32 32.09L150.20 31.97Q151.16 32.01 152.03 32.01L152.03 32.01L152.51 31.99L152.49 31.97Q152.68 32.05 152.87 32.09L152.80 32.02L153.23 32.15L153.18 32.09Q155.14 32.26 155.86 32.49L156.02 32.65L155.94 32.57Q157.35 32.95 158.22 33.90L158.32 34.00L158.39 34.07Q159.19 35.21 159.15 36.62L159.17 36.63L159.19 36.65Q159.03 39.36 158.23 42.02L158.24 42.03L158.39 42.17Q157.30 45.61 154.94 46.64ZM159.29 47.34L159.13 47.14L159.26 47.27Q160.35 45.28 160.65 41.16L160.55 41.06L160.56 41.07Q160.70 39.31 160.70 38.06L160.79 38.14L160.76 38.11Q160.74 36.57 159.98 35.16L160.04 35.22L159.96 35.15Q159.61 34.75 159.11 34.37L159.06 34.32L159.02 34.17L158.71 33.74L158.71 33.62L158.71 33.63Q156.89 31.50 152.55 31.50L152.70 31.65L152.11 31.67L152.05 31.61Q147.37 31.57 145.73 33.17L145.75 33.19L145.84 33.28Q145.59 32.69 145.44 32.19L145.45 32.21L145.19 31.14L145.19 31.15Q142.58 30.40 140.38 28.92L140.39 28.93L140.45 29.00Q143.76 35.35 144.06 42.58L144.10 42.61L144.10 42.62Q144.29 49.78 141.44 56.25L141.43 56.24L143.36 55.32L143.47 55.42Q143.12 56.07 142.44 57.63L142.56 57.75L142.48 57.67Q145.09 56.51 147.41 56.17L147.44 56.20L147.51 56.27Q148.67 51.49 148.82 47.76L148.81 47.74L148.85 47.78Q150.19 49.20 153.80 49.43L153.75 49.38L153.71 49.33Q157.73 49.66 159.18 47.23L159.11 47.16ZM153.54 37.17L153.51 37.14L153.50 37.13Q154.15 37.06 155.25 37.40L155.25 37.40L155.35 37.50Q155.59 38.47 155.56 39.65L155.57 39.66L155.57 39.66Q155.44 40.44 155.25 41.09L155.29 41.13L155.38 41.22Q154.67 44.13 152.16 44.43L152.17 44.44L152.28 44.44L152.14 44.31Q152.18 44.42 152.07 44.46L151.99 44.38L151.47 44.39L151.39 44.31Q150.37 44.47 149.38 43.98L149.27 43.87L148.93 41.81L148.98 41.87Q148.74 39.45 150.03 38.42L150.10 38.49L150.08 38.47Q151.21 37.51 153.61 37.24Z"/><path fill="#e065c1" d="M74.27 35.41L74.25 35.39L74.22 35.36Q70.85 41.81 67.42 45.76L67.34 45.69L67.36 45.70Q65.58 46.21 63.15 47.09L63.17 47.11L63.17 47.11Q68.06 41.49 72.82 33.08L72.71 32.97L72.67 32.93Q68.10 26.00 62.12 19.61L62.21 19.69L62.11 19.59Q65.04 20.81 67.33 21.31L67.43 21.41L67.45 21.43Q71.98 26.54 74.42 30.50L74.41 30.49L74.50 30.58Q76.89 26.04 80.81 21.62L80.87 21.68L80.82 21.63Q82.45 21.36 85.65 20.60L85.76 20.71L85.72 20.66Q79.68 27.15 76.21 33.09L76.12 32.99L76.21 33.09Q81.37 41.74 85.74 46.31L85.61 46.17L85.68 46.25Q83.09 45.44 80.99 45.22L80.95 45.17L80.96 45.18Q78.18 42.21 74.25 35.39ZM81.01 45.65L81.00 45.64L80.92 45.56Q81.16 45.54 81.62 45.65L81.68 45.71L81.64 45.67Q82.41 46.40 83.93 48.00L84.06 48.13L84.08 48.15Q87.27 48.79 90.31 50.16L90.42 50.26L90.50 50.34Q83.17 43.55 78.07 34.79L78.22 34.94L78.16 34.88Q81.82 28.15 87.72 21.30L87.84 21.42L87.76 21.33Q86.47 22.14 84.30 22.67L84.29 22.66L84.11 22.49Q85.01 21.60 86.77 19.81L86.87 19.91L86.76 19.80Q84.42 20.73 80.72 21.30L80.70 21.28L80.84 21.42Q77.32 25.13 74.73 29.43L74.78 29.48L74.78 29.49Q73.86 27.88 72.68 26.39L72.67 26.38L70.42 23.49L69.90 23.35L70.02 23.46Q69.87 23.47 69.64 23.39L69.69 23.44L69.51 23.26Q68.98 22.58 67.50 21.02L67.44 20.97L67.35 20.88Q63.62 20.07 61.03 18.70L61.02 18.70L61.05 18.72Q67.72 25.93 72.29 32.97L72.40 33.08L72.25 32.93Q67.81 41.17 62.06 47.76L62.04 47.73L62.02 47.71Q63.34 47.05 65.47 46.48L65.54 46.55L64.20 47.95L64.22 47.97Q64.30 48.05 62.97 49.39L62.89 49.30L62.94 49.35Q66.03 48.37 69.19 47.87L69.15 47.84L69.14 47.83Q73.07 43.23 75.66 38.48L75.72 38.54L75.65 38.47Q78.32 42.81 81.02 45.66Z"/><path d="M8 20 C89 55,107 21,174 5" stroke="#e84999" fill="none"/><path d="M4 24 C105 23,75 41,163 52" stroke="#96e546" fill="none"/><path fill="#3838d6" d="M50.22 25.17L50.08 25.04L50.22 25.18Q45.75 25.01 42.06 24.02L42.20 24.16L42.13 24.09Q43.68 28.69 43.87 33.52L43.91 33.56L43.80 33.45Q43.97 38.23 42.75 42.84L42.76 42.84L42.74 42.82Q45.62 42.28 49.13 42.13L49.24 42.24L49.14 42.14Q53.09 41.98 54.88 39.54L54.86 39.53L54.81 39.48Q56.42 37.50 56.61 33.39L56.65 33.43L56.65 33.43Q56.74 31.70 56.29 29.98L56.17 29.87L56.19 29.89Q54.97 25.20 50.24 25.20ZM38.25 47.12L38.19 47.07L38.22 47.09Q41.20 41.51 41.20 34.81L41.12 34.73L41.09 34.70Q41.20 26.29 36.90 19.28L36.75 19.13L36.87 19.25Q42.03 21.82 50.29 22.01L50.31 22.03L50.35 22.07Q59.25 22.29 59.60 29.45L59.60 29.46L59.62 29.47Q59.73 32.17 59.69 33.62L59.57 33.50L59.67 33.59Q59.59 38.28 58.75 40.45L58.70 40.39L58.72 40.42Q58.41 41.63 57.65 42.46L57.46 42.28L57.46 42.28Q56.23 43.94 53.60 44.43L53.53 44.36L53.58 44.41Q51.94 44.63 48.93 44.86L49.09 45.02L49.04 44.98Q42.94 45.46 38.33 47.21ZM56.26 47.09L56.23 47.06L56.16 46.99Q58.96 46.71 60.60 45.22L60.62 45.25L60.50 45.12Q61.78 43.43 61.74 40.69L61.72 40.67L61.80 40.75Q61.81 39.39 61.66 35.89L61.55 35.79L61.26 31.30L61.18 31.23Q60.93 28.88 59.98 26.79L60.13 26.93L60.15 26.95Q59.53 25.92 58.84 25.27L58.86 25.29L58.84 25.11L58.95 25.23Q57.19 22.21 52.77 21.83L52.68 21.73L52.81 21.86Q50.07 21.68 43.07 20.95L43.11 21.00L43.01 20.90Q39.74 20.44 36.05 18.42L36.16 18.54L36.13 18.51Q40.85 25.78 40.85 34.54L41.00 34.68L40.93 34.62Q40.94 41.63 37.59 47.80L37.60 47.81L37.61 47.82Q38.26 47.52 39.59 47.02L39.58 47.00L39.54 46.97Q39.24 47.84 38.36 49.33L38.28 49.25L38.29 49.26Q41.32 48.18 44.67 47.68L44.70 47.72L44.80 47.81Q46.91 47.52 50.56 47.41L50.57 47.41L50.47 47.31Q54.32 47.16 56.14 46.97ZM56.24 33.40L56.29 33.45L56.16 33.32Q55.94 41.47 49.24 41.85L49.13 41.75L49.11 41.73Q47.19 41.87 45.13 42.13L45.18 42.18L45.06 42.06Q45.83 38.26 45.83 34.60L45.79 34.56L45.80 34.58Q45.81 30.89 45.08 27.04L45.11 27.07L45.13 27.09Q47.40 27.46 52.08 27.46L52.01 27.38L52.05 27.42Q53.39 27.24 55.03 28.20L55.16 28.32L55.06 28.23Q56.43 30.59 56.28 33.44Z"/><path fill="#dc50dc" d="M134.92 28.11L134.83 28.02L134.88 28.07Q133.08 30.80 130.41 36.43L130.33 36.35L128.50 40.76L128.36 40.62Q127.43 42.47 126.10 44.72L126.12 44.74L126.10 44.72Q126.72 44.88 125.04 44.92L124.89 44.76L124.95 44.82Q124.88 44.76 123.63 44.76L123.82 44.95L123.77 44.90Q122.91 43.28 119.98 36.12L120.02 36.17L120.11 36.25Q117.86 30.81 115.77 27.80L115.84 27.87L115.87 27.91Q116.63 30.98 116.63 34.14L116.60 34.12L116.54 34.05Q116.47 40.50 113.50 46.06L113.66 46.22L113.58 46.13Q112.26 46.48 109.90 47.21L109.82 47.13L109.88 47.19Q113.62 41.56 113.62 34.33L113.58 34.29L113.63 34.35Q113.51 25.27 108.10 18.30L108.10 18.31L108.23 18.43Q109.74 19.03 112.10 19.71L112.08 19.70L112.27 19.88Q119.25 26.56 125.34 39.89L125.24 39.78L125.31 39.85Q128.77 32.80 130.98 29.30L130.97 29.29L130.94 29.26Q134.61 23.57 138.57 20.11L138.50 20.04L138.49 20.03Q139.88 19.93 142.24 19.17L142.27 19.20L142.15 19.09Q137.15 25.69 137.15 34.30L137.23 34.38L137.16 34.31Q137.11 40.92 140.54 46.44L140.54 46.44L140.61 46.52Q139.29 46.22 136.55 45.61L136.59 45.66L136.53 45.59Q134.26 40.88 134.26 34.91L134.14 34.79L134.10 34.75Q134.19 31.41 134.87 28.06ZM136.40 46.04L136.38 46.02L136.27 45.90Q137.14 46.20 138.59 46.47L138.50 46.38L138.57 46.46Q139.03 47.22 139.99 48.71L139.93 48.65L139.81 48.53Q141.98 48.98 145.44 50.20L145.57 50.33L145.53 50.29Q139.21 43.89 139.21 34.07L139.23 34.09L139.18 34.05Q139.30 26.43 143.67 20.30L143.49 20.12L141.34 20.86L141.46 20.98Q142.42 19.39 143.07 18.52L143.04 18.49L143.11 18.56Q141.23 19.19 138.60 19.72L138.50 19.62L138.52 19.64Q131.83 25.82 125.78 38.42L125.78 38.42L125.70 38.34Q120.48 27.34 115.53 22.08L115.67 22.22L115.55 22.10Q115.23 22.08 114.66 21.97L114.57 21.88L113.38 20.61L113.36 20.59Q112.87 20.03 112.18 19.42L112.16 19.39L112.27 19.51Q109.20 18.49 107.41 17.77L107.30 17.66L107.33 17.69Q113.30 24.88 113.30 34.28L113.37 34.34L113.25 34.22Q113.41 42.00 109.26 47.86L109.14 47.75L109.19 47.79Q109.91 47.61 111.21 47.19L111.09 47.07L111.13 47.10Q111.01 47.37 109.60 49.46L109.66 49.52L109.59 49.45Q111.43 49.01 114.94 48.25L114.91 48.23L114.94 48.25Q118.65 41.19 118.46 33.42L118.40 33.36L118.56 33.52Q119.99 37.43 123.45 45.31L123.54 45.39L123.47 45.32Q123.76 45.31 123.98 45.31L123.82 45.15L124.39 45.18L124.49 45.27Q124.92 45.93 125.71 47.23L125.69 47.20L125.61 47.13Q127.26 47.13 127.26 47.13L127.41 47.28L127.27 47.15Q128.28 47.13 128.93 47.21L129.07 47.34L128.87 47.15Q130.44 43.12 133.79 35.12L133.79 35.12L133.83 35.16Q133.81 40.70 136.40 46.03Z"/></svg>