<svg xmlns="http://www.w3.org/2000/svg" width="180" height="60" viewBox="0,0,180,60"><rect width="100%" height="100%" fill="#eef3fc"/><path fill="#748fe0" d="M123.19 44.95L123.11 44.87L123.25 45.01Q118.98 44.36 117.16 42.91L117.14 42.90L117.08 42.83Q115.36 41.49 114.94 38.48L114.97 38.52L114.97 38.52Q114.81 38.02 114.47 33.26L114.57 33.36L114.46 33.25Q114.63 32.20 114.55 30.94L114.56 30.95L114.58 30.98Q114.43 25.95 116.64 24.20L116.57 24.13L116.57 24.13Q119.17 21.97 126.94 21.29L126.96 21.31L126.97 21.31Q128.36 21.22 129.99 21.26L130.04 21.30L129.95 21.22Q129.87 21.14 132.84 21.14L132.87 21.16L132.94 21.23Q133.67 21.13 135.38 21.28L135.37 21.27L135.54 21.44Q134.97 22.32 133.95 25.40L133.84 25.30L133.85 25.31Q131.92 24.25 128.91 24.25L128.82 24.15L128.77 24.10Q128.07 24.17 127.27 24.25L127.21 24.18L127.30 24.28Q122.10 24.63 119.59 26.61L119.62 26.64L119.66 26.68Q117.72 28.36 117.57 31.71L117.49 31.64L117.41 31.55Q117.48 32.27 117.52 33.53L117.52 33.53L117.57 33.58Q117.70 38.43 120.10 40.52L120.03 40.46L120.00 40.43Q122.08 42.28 127.07 42.58L127.20 42.71L127.20 42.72Q130.18 42.73 133.19 40.94L133.35 41.10L133.33 41.07Q133.83 43.71 134.44 45.08L134.56 45.20L134.51 45.15Q132.36 45.37 130.73 45.33L130.83 45.43L130.80 45.40Q126.19 45.21 123.07 44.83ZM138.33 48.71L138.28 48.66L138.32 48.69Q136.44 45.60 135.75 43.01L135.72 42.98L135.81 43.06Q135.47 43.41 134.48 43.79L134.33 43.64L134.45 43.76Q134.15 43.00 133.96 42.17L133.89 42.10L133.40 40.27L133.48 40.35Q130.26 42.46 127.14 42.35L127.02 42.23L127.03 42.24Q122.85 42.14 120.53 40.39L120.56 40.42L120.59 40.44Q119.30 38.47 119.38 35.54L119.52 35.68L119.53 35.69Q119.61 31.13 122.08 29.00L121.97 28.88L122.05 28.97Q124.29 27.16 128.97 26.55L128.82 26.40L128.87 26.45Q129.76 26.43 130.48 26.43L130.32 26.27L130.47 26.41Q133.25 26.42 135.35 27.94L135.30 27.90L135.36 27.96Q135.68 25.65 136.89 22.41L136.90 22.42L137.07 22.58Q136.77 22.55 136.22 22.49L136.16 22.43L136.24 22.52Q135.68 22.45 135.41 22.45L135.42 22.46L135.30 22.34Q135.52 21.83 135.98 20.84L135.99 20.86L135.91 20.78Q135.80 20.90 133.31 20.82L133.22 20.73L133.31 20.82Q130.80 20.74 130.16 20.77L130.04 20.66L130.22 20.84Q119.69 21.15 116.22 23.74L116.15 23.67L116.13 23.65Q114.21 25.58 114.21 29.50L114.07 29.36L114.20 29.49Q114.08 30.47 114.19 33.17L114.16 33.14L114.16 33.14Q114.46 36.86 114.69 38.58L114.68 38.57L114.65 38.54Q115.01 41.64 116.61 43.16L116.51 43.06L116.55 43.11Q117.06 43.81 118.32 44.95L118.26 44.89L118.40 45.03Q121.60 46.75 126.85 47.51L126.87 47.53L126.90 47.55Q133.33 48.50 138.32 48.70Z"/><path d="M3 9 C105 48,74 39,177 39" stroke="#de4e72" fill="none"/><path d="M18 26 C104 55,83 20,162 2" stroke="#cfe980" fill="none"/><path d="M9 5 C80 50,73 9,169 46" stroke="#6faae5" fill="none"/><path fill="#4e71d9" d="M79.97 33.67L79.90 33.59L74.08 33.75L74.12 33.79Q71.23 33.87 68.30 33.80L68.30 33.80L68.18 33.68Q68.41 40.49 66.36 46.01L66.23 45.89L66.20 45.85Q64.39 46.37 62.64 47.06L62.76 47.17L62.70 47.11Q65.40 41.33 65.40 34.67L65.54 34.81L65.50 34.77Q65.41 26.18 61.29 19.14L61.30 19.14L61.43 19.28Q62.90 20.02 65.37 20.82L65.36 20.81L65.42 20.87Q67.52 25.90 68.05 30.77L68.01 30.73L68.02 30.74Q71.20 31.14 74.06 31.10L74.15 31.19L74.19 31.24Q76.85 31.23 80.16 30.97L80.04 30.84L79.98 30.78Q80.52 26.45 82.27 21.35L82.32 21.40L82.22 21.30Q84.29 21.00 86.53 20.17L86.46 20.09L86.45 20.09Q82.78 26.77 82.78 34.72L82.89 34.84L82.78 34.73Q82.80 40.95 85.16 46.27L85.30 46.41L85.18 46.30Q83.61 45.72 81.56 45.42L81.65 45.51L81.61 45.47Q79.93 40.44 80.04 33.74ZM81.36 45.83L81.35 45.82L81.19 45.66Q82.31 45.90 83.41 46.17L83.32 46.08L83.39 46.15Q83.80 46.94 84.45 48.42L84.32 48.29L84.40 48.38Q87.83 49.41 89.62 50.32L89.46 50.16L89.53 50.23Q85.10 44.09 84.79 35.82L84.77 35.80L84.70 35.73Q84.51 27.81 88.16 21.00L88.10 20.93L87.03 21.38L87.01 21.36Q86.52 21.59 85.91 21.75L85.92 21.76L85.97 21.81Q86.44 21.06 87.28 19.50L87.19 19.41L87.20 19.43Q84.50 20.41 81.87 20.91L82.02 21.06L81.85 20.89Q80.17 25.72 79.71 30.40L79.85 30.53L79.80 30.49Q77.36 30.75 74.92 30.75L74.88 30.71L74.85 30.68Q72.46 30.68 69.94 30.53L69.91 30.50L70.02 30.60Q69.78 27.32 68.68 23.25L68.60 23.17L68.62 23.19Q67.99 23.13 66.55 22.75L66.56 22.77L66.47 22.68Q66.19 21.56 65.73 20.53L65.65 20.45L65.62 20.42Q62.92 19.70 60.64 18.44L60.62 18.43L60.65 18.46Q65.25 25.91 65.25 34.71L65.24 34.69L65.32 34.78Q65.16 41.58 62.04 47.71L62.04 47.72L62.20 47.87Q62.73 47.41 64.06 46.84L64.21 46.99L64.13 46.91Q63.87 47.83 63.07 49.35L63.04 49.32L63.09 49.37Q65.93 48.40 68.17 47.98L68.10 47.91L68.14 47.95Q69.93 42.32 70.12 36.15L70.09 36.12L70.12 36.15Q71.79 36.15 74.99 36.11L74.98 36.09L74.88 35.99Q77.83 36.05 79.73 36.13L79.62 36.01L79.71 36.11Q80.01 41.89 81.34 45.81Z"/><path fill="#5274da" d="M100.82 32.78L100.86 32.82L100.74 32.70Q97.17 32.55 96.06 35.90L96.23 36.07L96.08 35.92Q95.86 37.15 95.75 38.21L95.71 38.18L95.70 38.17Q95.52 40.24 96.51 41.57L96.53 41.59L96.41 41.46Q97.76 42.66 100.23 42.70L100.25 42.72L100.26 42.73Q102.07 42.75 103.48 41.61L103.53 41.66L103.50 41.63Q104.90 40.47 104.90 38.68L104.87 38.66L104.99 38.77Q104.97 38.42 104.90 38.04L104.90 38.04L104.87 38.01Q104.60 32.83 100.79 32.75ZM100.76 45.29L100.68 45.20L100.69 45.21Q96.89 45.44 95.10 43.43L95.01 43.34L95.11 43.43Q94.80 44.38 94.34 45.75L94.48 45.90L94.34 45.76Q92.36 46.47 91.10 47.04L91.18 47.13L91.17 47.11Q93.40 41.20 93.40 34.69L93.45 34.73L93.38 34.66Q93.34 26.33 89.91 18.48L89.94 18.51L89.98 18.56Q92.20 19.78 93.53 20.24L93.50 20.20L93.60 20.31Q95.61 26.85 95.76 32.67L95.77 32.68L95.75 32.66Q97.39 30.18 101.12 30.22L101.15 30.25L101.09 30.20Q104.32 30.22 105.80 32.09L105.80 32.08L105.85 32.13Q107.64 34.39 107.80 37.97L107.77 37.94L107.70 37.87Q107.72 38.99 107.64 40.59L107.79 40.74L107.76 40.71Q107.62 42.05 106.74 43.19L106.73 43.18L106.79 43.24Q104.99 44.91 100.65 45.17ZM106.22 47.77L106.10 47.66L106.11 47.67Q107.64 47.70 109.12 47.02L109.13 47.03L109.25 47.15Q110.19 45.69 110.23 43.75L110.26 43.78L110.35 43.87Q110.26 43.28 110.10 42.10L110.10 42.09L110.09 42.09Q110.02 41.40 109.90 40.49L109.86 40.45L110.01 40.60Q109.11 35.74 107.55 33.68L107.59 33.72L107.54 33.68Q107.48 33.57 106.68 32.70L106.82 32.84L106.73 32.76Q106.51 32.49 105.98 31.69L106.09 31.80L105.99 31.71Q104.41 29.78 101.06 29.82L101.02 29.78L101.03 29.80Q98.96 29.82 97.71 30.43L97.64 30.37L97.82 30.54Q97.40 25.94 96.79 22.74L96.70 22.65L96.87 22.82Q96.16 22.68 94.68 22.29L94.48 22.10L94.61 22.23Q94.40 21.41 93.94 19.96L94.02 20.04L93.92 19.94Q91.60 19.26 89.35 17.70L89.22 17.56L89.21 17.56Q93.08 25.84 93.08 34.64L93.12 34.67L93.12 34.67Q92.99 41.51 90.52 47.72L90.63 47.83L90.52 47.72Q91.28 47.45 92.61 46.88L92.58 46.85L92.69 46.96Q92.45 47.71 91.84 49.23L91.86 49.25L91.69 49.08Q93.73 48.22 96.51 47.69L96.42 47.61L96.90 45.88L96.85 45.83Q99.20 47.57 106.13 47.68ZM102.45 35.09L102.44 35.08L102.44 35.08Q103.47 35.09 104.01 35.47L103.96 35.42L103.98 35.44Q104.24 35.90 104.47 37.92L104.53 37.97L104.51 37.96Q104.61 39.73 103.36 41.05L103.51 41.19L103.44 41.13Q102.10 42.36 100.16 42.25L100.22 42.30L100.20 42.28Q99.26 42.41 97.77 41.92L97.80 41.95L97.84 41.98Q97.57 41.45 97.57 40.91L97.63 40.97L97.63 40.97Q97.64 37.90 99.20 36.30L99.23 36.33L99.06 36.20L99.06 36.19Q100.55 34.87 102.30 34.95Z"/><path fill="#8364e1" d="M56.65 45.46L56.51 45.32L56.56 45.37Q53.60 41.50 50.97 32.86L50.92 32.80L51.04 32.92Q50.35 30.75 49.55 28.61L49.48 28.55L46.64 37.35L46.61 37.33Q44.79 42.24 42.39 45.48L42.32 45.41L42.34 45.43Q41.62 45.62 39.98 45.77L39.84 45.63L39.96 45.75Q40.03 44.53 40.03 43.27L40.06 43.30L40.12 43.36Q40.11 37.34 37.37 31.21L37.25 31.09L37.30 31.14Q34.23 24.30 28.37 19.31L28.22 19.17L28.29 19.23Q30.43 19.93 32.79 20.46L32.72 20.39L32.78 20.45Q41.39 28.84 42.69 39.80L42.71 39.82L42.69 39.80Q44.48 36.65 45.93 31.28L45.87 31.22L45.95 31.29Q47.85 23.72 48.34 22.31L48.34 22.31L50.52 22.24L50.53 22.25Q51.27 24.32 51.92 26.65L51.89 26.61L53.11 31.03L53.21 31.13Q54.78 36.58 56.19 39.82L56.11 39.75L56.21 39.84Q57.87 28.22 65.79 20.88L65.84 20.92L65.76 20.85Q67.31 20.53 70.28 19.88L70.27 19.87L70.30 19.91Q65.00 24.23 61.96 30.36L61.90 30.31L61.81 30.22Q58.85 36.58 58.85 43.36L58.83 43.35L58.69 43.21Q58.87 44.49 58.95 45.63L58.76 45.44L57.66 45.37L57.67 45.38Q57.06 45.30 56.48 45.30ZM62.89 48.35L62.80 48.27L62.79 48.25Q61.58 44.72 61.69 40.84L61.69 40.83L61.68 40.83Q62.00 29.26 71.36 21.00L71.30 20.94L71.30 20.94Q70.46 21.28 68.52 21.81L68.44 21.73L68.43 21.72Q69.49 20.99 71.39 19.20L71.25 19.06L71.32 19.14Q68.72 19.96 65.79 20.46L65.77 20.43L65.84 20.50Q58.20 27.48 56.29 36.96L56.42 37.08L56.40 37.07Q55.67 35.27 52.82 23.81L52.83 23.83L53.01 24.01Q52.41 23.90 51.46 23.90L51.61 24.05L51.32 23.00L51.26 22.94Q51.03 22.30 50.80 21.80L50.98 21.97L47.97 21.86L48.03 21.92Q47.18 24.35 45.91 29.47L45.97 29.53L45.94 29.50Q44.64 34.60 43.65 37.07L43.66 37.08L43.68 37.09Q42.07 29.17 36.51 22.85L36.54 22.88L36.58 22.92Q36.06 22.82 35.11 22.63L35.05 22.57L35.01 22.52Q34.25 21.65 32.69 20.01L32.70 20.03L32.80 20.13Q29.39 19.30 27.22 18.50L27.23 18.51L27.29 18.57Q32.82 23.12 36.10 29.32L36.26 29.49L36.08 29.31Q39.53 35.92 39.53 42.92L39.65 43.05L39.53 42.92Q39.62 44.58 39.43 46.17L39.35 46.09L39.46 46.20Q39.62 46.14 40.08 46.04L40.20 46.16L40.20 46.16Q40.53 45.94 40.76 45.94L40.74 45.92L40.71 46.92L40.72 46.93Q40.89 47.55 40.96 48.09L40.80 47.93L40.80 47.92Q42.02 47.93 44.31 47.78L44.33 47.80L44.28 47.75Q47.93 42.38 50.67 32.98L50.71 33.01L50.58 32.89Q53.48 41.80 56.45 45.76L56.36 45.66L56.41 45.72Q56.90 45.75 57.74 45.87L57.69 45.82L57.66 45.79Q58.58 46.90 59.65 47.97L59.56 47.88L59.62 47.94Q60.39 47.98 62.79 48.25Z"/><path fill="#eded7c" d="M31.44 28.34L31.43 28.33L31.40 28.30Q29.75 24.29 23.55 24.48L23.55 24.48L23.50 24.44Q19.00 24.46 17.02 25.91L17.11 26.00L17.13 26.03Q14.68 27.73 14.68 31.84L14.58 31.73L14.68 33.70L14.68 33.70Q14.67 42.52 23.69 42.52L23.75 42.58L23.65 42.48Q25.81 42.58 27.29 41.78L27.31 41.80L27.16 41.65Q29.15 40.79 29.00 38.92L28.90 38.83L28.88 38.80Q28.65 36.66 24.95 35.75L25.10 35.90L23.10 35.84L23.12 35.85Q22.14 35.83 21.19 35.87L21.23 35.91L21.13 35.80Q21.20 34.93 21.16 33.02L21.12 32.98L21.23 33.09Q28.80 33.01 32.99 32.67L33.02 32.70L32.90 32.58Q33.02 33.57 33.02 34.37L32.98 34.33L32.91 34.27Q32.89 35.05 32.93 35.85L32.92 35.83L32.93 35.85Q31.89 35.91 31.89 35.91L31.83 35.85L31.89 35.91Q30.55 35.94 30.93 35.94L30.92 35.93L30.95 35.96Q31.92 37.46 32.30 39.44L32.24 39.38L32.34 39.48Q32.49 40.24 32.49 40.70L32.40 40.61L32.41 40.62Q32.55 45.40 23.76 45.40L23.69 45.33L23.57 45.21Q16.63 45.39 14.04 43.30L14.04 43.30L13.91 43.17Q11.93 40.81 11.93 35.75L11.90 35.72L11.99 35.80Q11.89 34.64 11.73 31.93L11.85 32.05L11.81 32.01Q11.60 29.59 11.64 28.22L11.70 28.28L11.63 28.22Q11.84 25.46 13.21 23.86L13.27 23.91L13.15 23.79Q15.68 21.71 20.55 21.52L20.52 21.50L23.37 21.60L23.38 21.61Q26.31 21.34 29.73 21.76L29.72 21.75L29.74 21.77Q33.55 22.31 34.51 25.54L34.53 25.57L34.55 25.58Q33.51 26.49 31.41 28.31ZM32.67 30.37L32.95 30.54L32.98 30.56Q34.01 29.31 35.87 27.33L35.89 27.34L35.86 27.32Q35.68 26.49 34.69 24.78L34.63 24.72L34.71 24.80Q33.41 22.01 29.60 21.36L29.70 21.46L29.70 21.46Q27.59 21.37 23.29 21.07L23.22 20.99L20.56 21.16L20.59 21.18Q15.33 21.29 12.74 23.27L12.73 23.26L12.78 23.31Q11.43 24.97 11.32 28.05L11.28 28.01L11.37 28.11Q11.28 27.56 11.51 33.04L11.53 33.06L11.50 33.03Q11.56 34.42 11.64 37.16L11.69 37.22L11.62 37.15Q11.89 41.68 13.64 43.62L13.54 43.52L13.55 43.53Q14.01 44.45 14.89 45.33L14.85 45.29L14.90 45.34Q17.71 47.12 23.23 47.46L23.22 47.45L26.18 47.71L26.21 47.74Q27.69 47.73 29.71 47.62L29.70 47.61L29.69 47.60Q31.21 47.61 33.31 47.07L33.30 47.06L33.31 47.08Q35.35 46.68 35.32 44.36L35.19 44.24L35.16 44.21Q35.26 43.04 34.19 40.27L34.22 40.30L34.26 40.33Q33.77 39.24 33.24 38.44L33.41 38.61L33.28 38.48Q33.94 38.57 35.12 38.76L35.02 38.66L35.05 38.68Q34.74 35.07 34.78 34.38L34.88 34.48L34.84 34.44Q34.52 34.50 34.10 34.46L34.04 34.40L34.06 34.43Q33.62 34.33 33.24 34.40L33.24 34.41L33.33 34.49Q33.20 33.26 33.27 32.19L33.43 32.35L33.42 32.34Q27.04 32.74 20.76 32.62L20.84 32.71L20.83 32.69Q20.75 33.49 20.75 34.40L20.88 34.53L20.87 36.27L20.92 36.32Q21.31 36.33 21.73 36.29L21.76 36.33L21.70 36.27Q21.99 36.14 22.45 36.14L22.52 36.21L22.55 36.24Q22.56 36.70 22.60 37.20L22.61 37.22L22.56 37.16Q22.57 37.63 22.54 38.13L22.50 38.09L22.53 38.12Q23.64 38.16 24.66 38.12L24.52 37.98L24.57 38.03Q25.63 38.07 26.66 38.10L26.75 38.19L26.65 38.10Q27.64 38.28 28.51 38.66L28.56 38.71L28.54 38.73L28.52 38.71Q28.85 40.41 27.18 41.32L27.11 41.25L27.08 41.22Q25.47 42.20 23.76 42.20L23.76 42.21L23.67 42.12Q19.87 42.17 17.44 40.42L17.40 40.38L17.42 40.40Q16.38 38.29 16.53 35.74L16.52 35.73L16.65 35.86Q17.01 31.12 18.85 29.12L18.84 29.10L18.78 29.04Q20.64 27.06 25.32 26.75L25.33 26.76L25.32 26.75Q29.00 26.55 30.94 28.34L30.90 28.30L30.89 28.29Q30.93 28.36 31.04 28.55L30.99 28.50L31.19 28.59L31.24 28.64Q31.84 29.35 32.41 30.46L32.36 30.40L32.82 30.52Z"/><path fill="#c867e9" d="M145.66 37.87L145.65 37.87L145.71 37.93Q148.91 37.66 152.11 37.78L152.07 37.74L152.12 37.79Q151.95 35.11 151.95 32.71L152.07 32.83L151.91 32.67Q151.92 30.20 152.11 27.65L152.24 27.79L152.14 27.69Q151.04 29.51 145.82 38.04ZM155.54 45.21L155.68 45.34L155.56 45.23Q153.99 45.03 152.20 44.96L152.26 45.01L152.27 45.02Q152.03 42.61 151.92 40.14L151.79 40.01L151.80 40.02Q146.60 39.96 141.88 41.37L141.73 41.22L141.90 41.39Q141.97 40.85 142.16 39.86L142.22 39.92L142.08 39.78Q143.97 36.72 147.55 30.44L147.59 30.48L147.45 30.34Q150.36 25.48 153.78 21.60L153.87 21.68L153.73 21.55Q154.63 21.38 156.30 21.11L156.27 21.08L156.27 21.08Q154.47 27.62 154.47 34.66L154.55 34.74L154.45 34.63Q154.43 36.10 154.51 37.59L154.50 37.58L155.74 37.64L155.79 37.69Q156.39 37.72 157.00 37.84L157.12 37.95L157.06 37.90Q157.10 38.82 157.37 40.76L157.43 40.82L157.50 40.89Q156.11 40.45 154.63 40.26L154.80 40.43L154.80 40.43Q155.02 42.45 155.71 45.38ZM157.28 37.46L157.29 37.47L157.25 37.44Q157.09 37.39 156.89 37.39L156.90 37.39L156.57 37.44L156.63 37.50Q156.44 35.94 156.44 34.53L156.42 34.51L156.38 34.48Q156.44 28.14 158.50 22.13L158.55 22.18L158.45 22.08Q157.69 22.35 156.25 22.73L156.21 22.69L156.31 22.79Q156.51 22.01 156.97 20.60L156.90 20.53L156.98 20.61Q155.66 20.96 153.60 21.19L153.70 21.29L153.60 21.19Q149.78 25.63 144.56 34.99L144.55 34.98L146.53 31.21L146.64 31.32Q146.14 32.27 145.87 32.84L145.94 32.90L141.48 41.92L141.52 41.96Q142.16 41.80 143.30 41.42L143.29 41.41L143.04 41.54L142.99 41.49Q142.90 42.20 142.60 43.46L142.59 43.46L142.60 43.46Q146.80 42.21 151.63 42.40L151.59 42.36L151.66 42.43Q151.61 43.29 151.80 45.27L151.74 45.22L151.84 45.32Q152.91 45.32 153.98 45.44L153.98 45.44L154.03 45.49Q154.08 46.07 154.35 47.44L154.37 47.46L154.35 47.44Q156.33 47.75 159.34 48.66L159.20 48.53L159.37 48.70Q158.38 46.56 157.47 43.29L157.47 43.30L158.89 43.72L158.91 43.75Q159.56 43.94 160.25 44.28L160.27 44.30L160.25 44.29Q159.36 41.68 159.21 40.01L159.19 39.99L159.18 39.97Q158.72 39.94 157.58 39.71L157.44 39.57L157.60 39.73Q157.29 38.35 157.29 37.48ZM149.28 37.32L149.28 37.31L149.22 37.25Q150.15 36.12 151.71 33.57L151.62 33.48L151.58 33.44Q151.72 34.53 151.68 35.48L151.65 35.46L151.64 35.45Q151.51 36.30 151.54 37.25L151.74 37.45L151.69 37.39Q150.98 37.22 150.40 37.22L150.55 37.36L150.51 37.32Q149.88 37.30 149.27 37.30Z"/></svg>