<svg xmlns="http://www.w3.org/2000/svg" width="180" height="60" viewBox="0,0,180,60"><rect width="100%" height="100%" fill="#eef3fc"/><path d="M19 37 C105 5,86 37,174 34" stroke="#d94e4e" fill="none"/><path fill="#3939de" d="M121.63 34.62L121.59 34.57L121.73 34.71Q121.59 38.84 120.87 42.99L120.93 43.05L120.94 43.06Q123.18 42.49 126.27 42.37L126.19 42.30L126.33 42.44Q127.59 42.55 128.66 41.55L128.67 41.56L128.65 41.54Q129.79 40.61 129.79 39.28L129.81 39.29L129.68 39.16Q129.80 38.98 129.77 38.71L129.65 38.60L129.75 38.70Q129.47 35.64 127.23 34.80L127.37 34.95L127.22 34.79Q126.61 34.64 125.92 34.72L125.86 34.66L125.93 34.73Q124.83 34.62 123.80 34.65L123.71 34.57L123.74 34.60Q122.67 34.63 121.65 34.63ZM120.37 24.14L120.35 24.12L120.35 24.12Q121.27 27.48 121.54 31.86L121.60 31.92L121.52 31.84Q123.03 32.02 125.70 32.06L125.69 32.05L125.70 32.06Q128.72 32.18 129.06 28.64L128.97 28.55L128.94 28.52Q129.12 26.57 127.71 25.74L127.85 25.87L127.65 25.68Q126.78 25.19 122.37 24.54L122.41 24.58L122.33 24.50Q121.45 24.53 120.53 24.30ZM116.83 47.14L116.83 47.13L116.81 47.12Q119.17 40.34 118.90 32.95L118.93 32.98L118.93 32.98Q118.61 25.65 115.68 19.18L115.78 19.29L115.74 19.25Q119.61 21.86 125.84 22.11L125.81 22.08L125.82 22.09Q131.98 22.28 132.32 25.17L132.45 25.29L132.28 25.13Q132.66 27.94 131.25 30.61L131.28 30.63L131.30 30.65Q130.44 32.04 128.84 32.73L128.97 32.86L128.94 32.83Q132.65 33.56 132.88 38.93L132.75 38.81L132.76 38.81Q132.92 40.00 132.84 41.41L132.91 41.48L132.81 41.38Q132.85 42.79 131.92 43.72L131.92 43.73L131.78 43.58Q130.85 44.52 129.52 44.67L129.59 44.74L129.56 44.72Q128.15 44.86 127.08 44.86L126.98 44.76L127.08 44.86Q121.38 44.87 116.85 47.15ZM129.59 47.41L129.67 47.48L129.50 47.32Q130.48 47.42 132.34 47.53L132.35 47.54L132.37 47.56Q133.90 47.73 135.01 46.85L134.86 46.70L134.96 46.80Q135.62 45.75 135.51 44.19L135.65 44.33L135.59 44.27Q135.49 43.30 134.77 39.84L134.71 39.78L134.76 39.83Q134.04 36.55 132.17 35.07L132.17 35.07L131.74 34.21L131.81 34.29Q133.55 32.95 134.12 29.18L134.05 29.10L134.13 29.19Q134.28 28.04 134.21 26.63L134.12 26.55L134.14 26.56Q134.19 25.36 133.09 24.53L132.93 24.36L132.98 24.42Q132.65 24.20 132.54 24.16L132.45 24.08L132.58 24.20Q132.27 23.63 131.43 22.83L131.46 22.86L131.55 22.95Q129.95 21.81 125.73 21.62L125.67 21.56L125.81 21.70Q119.01 21.26 115.01 18.37L115.04 18.39L115.03 18.38Q118.32 25.40 118.62 32.94L118.68 33.00L118.65 32.97Q119.06 40.88 116.24 47.80L116.29 47.85L118.34 46.90L118.34 46.89Q117.92 48.00 117.43 49.14L117.43 49.15L117.43 49.14Q121.61 47.15 126.63 47.15L126.67 47.19L126.64 47.16Q128.04 47.15 129.49 47.31ZM127.50 36.91L127.44 36.85L127.40 36.81Q128.20 36.80 129.11 37.26L129.00 37.15L129.00 37.15Q129.25 37.63 129.41 38.70L129.26 38.55L129.27 38.56Q129.62 40.09 128.68 41.13L128.69 41.14L128.55 41.00Q127.65 42.08 126.24 41.96L126.20 41.92L124.75 42.07L124.69 42.02Q124.05 42.17 123.33 42.29L123.30 42.26L123.25 42.22Q123.53 40.36 123.61 36.90L123.68 36.97L123.75 37.04Q124.40 36.97 125.66 36.93L125.49 36.76L125.56 36.83Q126.92 36.90 127.53 36.94ZM126.44 27.28L126.51 27.35L126.86 27.32L126.86 27.32Q127.10 27.33 127.29 27.37L127.22 27.30L127.64 27.34L128.00 27.51L128.64 27.61L128.47 27.44Q128.59 27.72 128.59 28.02L128.67 28.10L128.67 28.63L128.54 28.51Q128.63 29.85 127.75 30.78L127.75 30.78L127.74 30.77Q126.91 31.75 125.70 31.75L125.60 31.66L125.57 31.62Q124.62 31.70 124.62 31.70L124.73 31.81L124.72 31.80Q123.30 31.68 123.65 31.68L123.59 31.63L123.56 31.59Q123.63 30.18 123.32 27.13L123.26 27.07L123.32 27.13Q124.99 27.35 126.51 27.35Z"/><path d="M10 8 C76 35,108 51,160 16" stroke="#5fc5e7" fill="none"/><path d="M13 36 C105 39,99 34,160 45" stroke="#6fe08c" fill="none"/><path fill="#4091e2" d="M149.75 46.06L149.70 46.01L149.63 45.94Q145.45 34.68 140.31 29.69L140.43 29.81L140.45 29.84Q141.81 30.36 144.78 31.00L144.87 31.09L144.84 31.07Q148.27 34.88 150.82 41.54L150.82 41.53L150.97 41.68Q153.57 34.27 156.20 31.23L156.23 31.26L156.17 31.21Q158.12 31.06 160.56 30.37L160.62 30.44L160.62 30.44Q157.34 33.05 155.17 37.62L155.30 37.76L155.29 37.74Q154.86 38.34 151.47 45.96L151.44 45.93L151.56 46.05Q150.80 45.97 149.58 45.89ZM154.23 48.33L154.24 48.35L154.36 48.47Q157.77 36.22 162.34 31.54L162.30 31.50L160.81 32.00L160.71 31.90Q159.94 32.15 159.10 32.27L159.14 32.30L159.12 32.28Q159.67 31.96 160.49 31.09L160.41 31.00L160.43 31.03Q161.27 30.18 161.73 29.76L161.72 29.74L161.70 29.73Q159.38 30.26 155.96 30.76L156.11 30.91L156.13 30.93Q153.28 33.98 151.22 39.58L151.29 39.65L151.22 39.57Q149.56 35.37 147.73 32.89L147.73 32.88L147.35 33.04L147.21 32.90Q146.95 32.90 146.72 32.90L146.73 32.92L146.67 32.85Q146.56 32.63 144.84 30.57L144.93 30.66L144.94 30.67Q141.52 30.11 139.28 28.97L139.25 28.94L139.17 28.86Q145.37 34.64 149.37 46.37L149.29 46.28L150.46 46.47L150.44 46.45Q150.81 47.12 151.65 48.41L151.60 48.37L152.92 48.31L152.94 48.34Q153.65 48.32 154.29 48.40Z"/><path fill="#9175e4" d="M17.80 24.22L17.81 24.23L17.74 24.16Q18.85 28.62 19.00 31.82L18.98 31.79L19.01 31.83Q19.62 31.98 24.00 32.09L23.92 32.01L23.94 32.03Q26.41 31.99 26.79 28.53L26.82 28.56L26.90 28.63Q26.99 26.79 26.08 25.87L26.19 25.98L26.22 26.01Q24.78 24.95 22.80 24.80L22.77 24.77L22.89 24.89Q19.59 24.60 17.72 24.14ZM19.22 33.86L19.12 33.76L19.15 33.79Q19.33 39.79 17.54 45.73L17.53 45.73L17.50 45.70Q16.27 46.03 13.68 47.05L13.68 47.05L13.72 47.09Q16.46 40.50 16.12 33.04L16.19 33.11L16.10 33.02Q15.85 25.73 12.53 19.22L12.56 19.25L12.62 19.30Q17.47 22.10 24.44 22.10L24.38 22.04L24.38 22.05Q30.09 22.12 30.36 25.66L30.38 25.68L30.31 25.61Q30.38 26.21 30.30 26.82L30.32 26.84L30.29 28.03L30.28 28.02Q29.41 31.91 27.28 33.62L27.30 33.64L27.19 33.53Q26.41 34.24 25.38 34.24L25.42 34.27L22.88 34.32L22.86 34.30Q28.42 41.50 32.95 46.07L33.06 46.18L33.05 46.16Q30.79 45.36 27.86 45.02L27.78 44.93L27.83 44.98Q24.01 40.98 19.10 33.74ZM27.79 45.43L27.65 45.30L28.04 45.39L29.26 46.60L29.31 46.65Q29.92 47.22 30.56 47.83L30.52 47.78L30.42 47.69Q34.02 48.36 37.60 50.23L37.73 50.35L37.61 50.23Q30.63 43.44 25.22 36.51L25.38 36.67L27.02 36.56L26.98 36.52Q30.16 36.61 31.49 32.08L31.39 31.98L31.53 32.12Q32.14 29.84 32.14 27.14L32.24 27.24L32.19 27.18Q32.19 24.90 30.48 24.26L30.36 24.14L30.53 24.31Q30.37 23.88 29.80 23.20L29.72 23.12L29.80 23.19Q28.14 21.77 24.49 21.69L24.49 21.69L24.46 21.66Q16.49 21.43 11.81 18.42L11.95 18.56L11.78 18.39Q15.54 25.24 15.89 32.93L15.95 32.99L15.85 32.89Q16.32 40.97 13.20 47.82L13.07 47.69L13.13 47.76Q14.42 47.22 15.22 46.92L15.16 46.86L14.29 49.26L14.17 49.14Q16.92 48.12 19.58 47.62L19.53 47.58L19.59 47.63Q20.92 42.57 21.11 37.35L21.00 37.24L21.14 37.38Q24.65 42.34 27.81 45.46ZM26.48 27.45L26.51 27.48L26.38 27.35Q26.46 27.66 26.46 28.00L26.47 28.01L26.61 28.73L26.57 28.68Q26.44 29.66 25.75 30.61L25.74 30.60L25.75 30.61Q25.13 31.36 24.22 31.55L24.21 31.54L24.23 31.56Q24.14 31.74 22.55 31.78L22.56 31.80L22.49 31.73Q22.00 31.84 21.16 31.73L21.09 31.66L21.12 31.69Q20.93 30.09 20.59 27.05L20.62 27.07L20.67 27.13Q22.06 27.29 22.74 27.29L22.61 27.16L22.66 27.21Q24.47 27.19 26.41 27.38Z"/><path fill="#c575df" d="M73.44 34.26L73.34 34.16L73.44 34.26Q71.51 34.19 70.29 35.52L70.24 35.47L70.34 35.57Q69.11 36.89 68.96 38.80L68.96 38.80L68.97 38.80Q68.76 40.92 69.98 41.93L69.85 41.80L69.87 41.82Q71.23 42.97 73.36 42.90L73.31 42.84L73.30 42.83Q75.53 42.59 76.48 41.63L76.51 41.66L76.63 41.78Q77.57 40.25 77.46 38.43L77.39 38.36L77.50 38.47Q77.32 36.54 76.24 35.34L76.25 35.35L76.31 35.41Q75.14 34.12 73.31 34.12ZM73.27 24.68L73.36 24.77L73.29 24.70Q71.90 24.60 70.56 25.10L70.53 25.07L70.61 25.15Q69.22 25.84 69.44 27.71L69.59 27.85L69.50 27.76Q70.09 31.59 73.44 31.59L73.37 31.52L73.36 31.51Q74.90 31.67 75.89 30.53L75.97 30.62L75.93 30.58Q77.01 29.53 77.05 27.97L76.97 27.89L76.88 27.80Q76.96 26.05 76.24 25.44L76.26 25.46L76.32 25.52Q74.66 24.70 73.37 24.78ZM73.15 45.38L73.15 45.39L70.03 45.31L70.12 45.40Q68.57 45.37 67.24 44.50L67.16 44.42L67.11 44.37Q65.77 43.26 65.92 40.40L65.90 40.38L65.91 40.40Q66.32 33.49 69.94 32.50L70.01 32.57L69.99 32.56Q67.65 31.59 66.32 26.22L66.50 26.40L66.40 26.30Q65.99 24.82 66.06 24.02L66.18 24.14L66.19 24.15Q66.45 21.97 70.14 21.93L70.10 21.89L70.17 21.96Q74.37 21.86 75.82 22.05L75.73 21.96L75.75 21.98Q79.70 22.62 80.16 24.64L80.15 24.64L80.11 24.59Q80.31 25.29 80.31 25.67L80.30 25.66L80.22 25.58Q80.20 26.24 80.01 26.85L79.98 26.82L80.06 26.90Q79.35 31.03 76.42 32.55L76.44 32.57L76.48 32.61Q80.07 33.50 80.57 38.79L80.52 38.74L80.49 38.72Q80.45 38.83 80.49 40.12L80.45 40.09L80.57 40.20Q80.51 42.81 78.91 43.88L79.05 44.02L79.08 44.05Q77.70 44.91 73.13 45.37ZM75.34 47.61L75.41 47.68L78.62 47.62L78.70 47.70Q80.43 47.79 81.96 47.07L81.89 47.01L81.98 47.09Q83.01 46.26 83.08 44.39L83.11 44.42L83.09 44.40Q83.13 43.30 82.75 41.36L82.90 41.50L82.87 41.48Q81.87 36.75 79.78 34.88L79.83 34.93L79.62 34.54L79.43 34.26L79.21 33.93L79.18 33.90Q80.87 32.58 81.78 28.43L81.74 28.39L81.91 28.56Q81.77 28.04 81.84 27.20L82.00 27.36L81.93 27.28Q81.93 26.53 81.85 25.92L81.90 25.96L81.88 25.94Q81.76 24.53 80.58 24.04L80.57 24.02L80.51 23.92L80.48 23.98L80.44 23.93Q80.24 23.28 79.06 22.48L78.94 22.36L78.92 22.30L79.09 22.46Q77.01 21.68 72.93 21.49L72.95 21.51L73.04 21.60Q71.32 21.32 69.95 21.43L69.97 21.46L70.11 21.60Q69.27 21.60 67.98 21.75L67.91 21.68L67.86 21.64Q65.93 22.03 65.70 23.66L65.77 23.73L65.71 23.67Q65.81 24.31 65.85 25.11L65.78 25.03L65.81 25.06Q65.86 25.53 66.43 27.89L66.43 27.89L66.44 27.90Q67.15 31.05 68.90 32.38L68.97 32.45L69.01 32.49L69.01 32.49Q66.35 33.91 65.82 39.08L65.86 39.12L65.75 39.02Q65.50 41.16 65.50 42.08L65.62 42.19L65.65 42.22Q65.60 43.89 66.78 44.80L66.90 44.92L66.87 44.89Q66.96 44.94 67.23 45.13L67.19 45.09L67.15 45.05Q68.32 47.49 75.44 47.71ZM75.10 36.64L75.04 36.58L75.10 36.64Q75.92 36.47 76.80 36.92L76.81 36.94L76.83 36.96Q77.11 37.85 77.07 38.38L77.18 38.49L77.21 38.52Q77.12 38.70 77.12 39.00L77.20 39.08L77.11 38.99Q77.11 41.35 74.83 42.19L74.84 42.20L74.93 42.29Q74.09 42.56 73.30 42.45L73.35 42.50L73.25 42.40Q72.11 42.48 70.97 42.03L70.97 42.03L71.12 42.17Q70.72 41.39 70.79 40.40L70.92 40.53L70.95 40.55Q71.02 38.88 72.22 37.66L72.23 37.67L72.28 37.72Q73.37 36.39 74.97 36.51ZM75.22 27.05L75.18 27.01L75.20 27.03Q76.05 26.96 76.58 27.12L76.56 27.10L76.63 27.96L76.50 27.84Q76.62 29.36 75.71 30.37L75.57 30.23L75.59 30.26Q74.65 31.24 73.28 31.05L73.37 31.14L73.42 31.19Q72.38 31.14 71.97 30.91L72.01 30.96L72.05 31.00Q71.93 30.65 71.82 29.97L71.89 30.04L71.75 29.90Q71.58 28.59 72.80 27.75L72.84 27.80L72.76 27.71Q73.89 27.09 75.30 27.13Z"/><path fill="#8e48d5" d="M53.68 45.92L53.67 45.90L53.63 45.87Q52.47 44.33 51.18 41.24L51.02 41.09L48.99 36.05L49.03 36.09Q47.29 39.95 46.68 41.25L46.80 41.36L46.69 41.26Q45.30 44.24 43.70 46.14L43.72 46.16L43.80 46.24Q43.37 46.19 42.61 46.31L42.59 46.29L42.56 46.26Q42.64 38.92 36.82 32.98L36.77 32.93L36.74 32.90Q34.94 31.02 32.92 29.54L33.03 29.64L32.98 29.59Q34.94 30.27 36.81 30.57L36.71 30.47L36.70 30.46Q42.88 35.54 44.33 41.78L44.26 41.72L44.30 41.75Q45.22 39.93 46.40 36.73L46.32 36.66L46.39 36.73Q47.67 32.91 48.24 31.61L48.25 31.62L49.72 31.68L49.58 31.54Q50.52 33.32 51.70 36.59L51.78 36.67L51.63 36.52Q52.90 40.12 53.55 41.52L53.65 41.62L53.56 41.54Q55.50 35.37 60.98 30.80L60.93 30.74L60.90 30.71Q62.24 30.76 64.98 30.19L64.97 30.18L64.98 30.19Q56.20 36.07 55.02 46.04L55.02 46.04L54.49 46.05L54.48 46.03Q53.98 45.84 53.64 45.88ZM56.75 48.46L58.72 48.56L58.77 48.61Q58.49 47.12 58.49 45.59L58.36 45.46L58.36 45.46Q58.34 42.20 59.75 38.97L59.77 38.99L59.84 39.05Q61.84 34.55 65.96 31.47L65.88 31.39L66.01 31.53Q64.74 31.74 62.87 32.08L62.80 32.01L62.76 31.97Q64.78 30.37 66.08 29.46L66.05 29.44L63.52 29.87L63.57 29.92Q62.44 30.23 61.10 30.39L61.06 30.35L61.01 30.30Q55.87 34.56 53.93 39.58L53.89 39.54L53.89 39.54Q53.25 37.38 51.88 33.11L52.00 33.24L51.99 33.22Q51.52 33.10 51.26 33.10L51.36 33.20L50.75 33.13L50.87 33.25Q50.77 32.96 49.97 31.21L49.98 31.21L47.90 31.20L47.85 31.14Q46.88 33.94 44.79 39.58L44.76 39.55L44.77 39.56Q43.53 35.96 40.45 32.68L40.38 32.62L40.40 32.64Q40.08 32.58 39.77 32.55L39.76 32.53L39.27 32.50L39.15 32.37Q38.42 31.68 36.63 30.08L36.68 30.14L36.55 30.00Q33.48 29.45 31.80 28.95L31.84 28.99L31.85 28.99Q42.57 36.45 42.19 46.76L42.18 46.75L42.20 46.78Q42.31 46.70 42.68 46.66L42.66 46.64L42.71 46.69Q42.96 46.54 43.15 46.54L43.22 46.62L43.26 46.66Q43.15 46.40 43.35 48.49L43.43 48.58L45.28 48.33L45.39 48.44Q47.96 45.60 50.20 39.85L50.15 39.80L50.16 39.81Q51.76 43.77 53.62 46.43L53.46 46.27L53.60 46.41Q53.86 46.32 54.12 46.34L54.23 46.45L54.05 46.27Q54.44 46.41 54.71 46.41L54.70 46.41L56.75 48.46Z"/><path fill="#df7d5d" d="M99.62 46.35L99.55 46.28L99.60 46.33Q96.76 46.54 95.51 46.00L95.58 46.08L95.50 46.00Q93.65 45.29 93.72 42.81L93.60 42.69L93.53 42.62Q93.77 39.32 93.77 39.89L93.86 39.98L93.85 39.97Q93.71 34.50 90.85 29.66L90.91 29.72L90.84 29.65Q92.99 30.78 94.97 31.16L94.94 31.13L94.90 31.08Q96.56 35.64 96.45 40.13L96.49 40.18L96.50 40.19Q96.39 41.71 97.22 42.93L97.22 42.92L97.14 42.85Q98.14 44.26 99.66 44.07L99.59 43.99L99.93 43.84L99.93 43.84Q101.36 43.87 102.18 43.11L102.18 43.10L102.21 43.13Q102.90 42.24 102.90 41.29L102.99 41.39L102.96 41.35Q102.92 41.09 102.88 40.90L102.81 40.83L102.96 40.98Q102.79 35.62 103.93 31.28L104.06 31.41L103.89 31.24Q104.93 31.18 105.92 30.96L106.01 31.04L108.03 30.55L108.07 30.59Q105.42 35.52 105.73 41.08L105.70 41.04L105.77 41.12Q106.00 44.24 104.28 45.38L104.25 45.35L104.31 45.40Q102.95 46.21 99.64 46.37ZM101.90 48.71L101.92 48.73L102.04 48.84Q105.33 48.83 107.16 48.07L107.30 48.21L107.30 48.20Q108.27 47.50 108.27 46.09L108.20 46.02L108.14 45.96Q108.11 45.01 107.84 43.45L107.93 43.54L107.88 43.49Q107.42 40.37 107.80 37.36L107.76 37.32L107.82 37.39Q108.19 34.21 109.60 31.47L109.59 31.46L109.66 31.54Q108.95 31.77 107.61 32.19L107.73 32.30L107.62 32.20Q107.77 31.51 108.08 30.94L108.26 31.12L108.69 29.83L108.67 29.81Q106.75 30.49 103.59 30.98L103.55 30.94L103.63 31.02Q102.48 35.89 102.63 40.99L102.66 41.01L102.58 40.93Q102.65 43.02 99.98 43.52L100.04 43.57L99.57 43.56L99.50 43.64L98.51 43.45L98.50 43.45Q98.42 42.56 98.46 42.06L98.44 42.04L98.49 42.10Q98.68 37.57 98.00 33.16L97.97 33.13L96.89 32.97L97.03 33.10Q96.38 32.95 95.85 32.83L95.88 32.86L95.80 32.79Q95.49 31.45 95.23 30.69L95.30 30.77L95.29 30.75Q92.49 30.31 90.24 29.02L90.14 28.92L90.12 28.89Q92.36 32.50 93.08 35.89L93.02 35.83L92.97 35.78Q93.64 38.16 93.49 41.66L93.42 41.60L93.36 41.54Q93.45 41.74 93.37 42.84L93.43 42.90L93.45 42.92Q93.16 45.15 94.53 46.10L94.51 46.07L94.63 46.19Q94.96 48.39 101.96 48.77Z"/></svg>