<svg xmlns="http://www.w3.org/2000/svg" width="180" height="60" viewBox="0,0,180,60"><rect width="100%" height="100%" fill="#eef3fc"/><path d="M3 24 C83 59,99 37,178 37" stroke="#aae273" fill="none"/><path fill="#61a0df" d="M148.67 45.00L148.53 44.86L148.66 44.99Q144.38 44.33 142.55 42.88L142.51 42.84L142.48 42.81Q140.66 41.37 140.24 38.36L140.26 38.38L140.37 38.49Q140.35 38.13 140.01 33.37L139.91 33.27L139.92 33.28Q140.03 32.17 139.95 30.92L139.91 30.88L139.88 30.85Q139.66 25.75 141.87 24.00L141.87 24.00L141.98 24.11Q144.61 21.98 152.37 21.29L152.49 21.41L152.31 21.23Q153.81 21.24 155.44 21.28L155.27 21.11L155.27 21.11Q155.37 21.21 158.34 21.21L158.37 21.23L158.27 21.13Q159.11 21.13 160.82 21.29L160.95 21.42L160.81 21.28Q160.42 22.34 159.39 25.42L159.45 25.48L159.29 25.32Q157.32 24.22 154.31 24.22L154.33 24.24L154.33 24.24Q153.52 24.19 152.72 24.27L152.76 24.31L152.71 24.26Q147.61 24.72 145.10 26.70L145.10 26.70L145.14 26.74Q143.10 28.32 142.95 31.67L143.01 31.72L142.97 31.68Q142.93 32.29 142.97 33.55L142.82 33.40L142.98 33.56Q143.05 38.35 145.44 40.44L145.51 40.51L145.39 40.39Q147.60 42.37 152.59 42.67L152.62 42.71L152.62 42.71Q155.73 42.84 158.73 41.05L158.68 41.00L158.72 41.04Q159.34 43.79 159.95 45.16L159.97 45.19L159.99 45.20Q157.92 45.50 156.29 45.46L156.24 45.42L156.24 45.41Q151.66 45.25 148.54 44.87ZM163.65 48.60L163.73 48.68L163.76 48.71Q161.89 45.62 161.20 43.03L161.26 43.09L161.29 43.11Q160.90 43.41 159.91 43.79L159.77 43.65L159.84 43.72Q159.44 42.86 159.25 42.03L159.23 42.00L158.98 40.43L158.94 40.39Q155.59 42.36 152.47 42.25L152.54 42.32L152.57 42.35Q148.30 42.15 145.98 40.40L145.93 40.35L145.90 40.32Q144.80 38.54 144.87 35.61L144.78 35.51L144.85 35.58Q144.96 31.05 147.43 28.91L147.44 28.93L147.54 29.03Q149.69 27.14 154.38 26.53L154.35 26.51L154.35 26.50Q155.08 26.32 155.80 26.32L155.74 26.26L155.86 26.38Q158.66 26.40 160.76 27.93L160.67 27.84L160.68 27.85Q161.14 25.68 162.36 22.45L162.36 22.45L162.37 22.45Q162.24 22.59 161.69 22.53L161.65 22.50L161.58 22.43Q161.07 22.41 160.80 22.41L160.69 22.30L160.75 22.36Q160.88 21.77 161.34 20.78L161.52 20.96L161.34 20.79Q161.27 20.94 158.77 20.86L158.65 20.74L158.68 20.77Q156.27 20.77 155.62 20.81L155.52 20.71L155.49 20.68Q145.15 21.19 141.69 23.78L141.52 23.61L141.66 23.76Q139.48 25.42 139.48 29.34L139.48 29.34L139.48 29.34Q139.62 30.58 139.74 33.29L139.76 33.31L139.77 33.32Q139.77 36.74 140.00 38.46L140.05 38.51L139.99 38.46Q140.43 41.64 142.03 43.16L142.05 43.17L142.08 43.21Q142.59 43.91 143.85 45.05L143.71 44.92L143.67 44.88Q147.00 46.72 152.26 47.48L152.25 47.48L152.28 47.50Q158.63 48.37 163.62 48.56Z"/><path d="M8 59 C91 9,83 11,171 15" stroke="#cde87c" fill="none"/><path fill="#36dcdc" d="M24.55 32.80L24.47 32.71L24.48 32.73Q21.01 32.69 19.91 36.04L19.89 36.02L19.89 36.02Q19.55 37.12 19.44 38.19L19.39 38.14L19.32 38.07Q19.12 40.12 20.11 41.45L20.11 41.45L20.14 41.48Q21.48 42.67 23.95 42.71L24.06 42.81L23.95 42.70Q25.76 42.73 27.17 41.59L27.10 41.51L27.15 41.56Q28.64 40.50 28.64 38.71L28.56 38.63L28.58 38.65Q28.52 38.25 28.45 37.87L28.60 38.02L28.50 37.93Q28.30 32.82 24.50 32.74ZM24.41 45.22L24.43 45.24L24.30 45.11Q20.67 45.51 18.88 43.50L18.78 43.40L18.87 43.49Q18.47 44.34 18.01 45.71L18.10 45.79L18.17 45.87Q16.22 46.62 14.96 47.19L14.95 47.18L14.79 47.02Q16.97 41.05 16.97 34.54L16.98 34.55L17.16 34.73Q17.05 26.32 13.62 18.48L13.55 18.41L13.60 18.46Q15.93 19.80 17.26 20.25L17.29 20.28L17.24 20.23Q19.45 26.97 19.60 32.80L19.50 32.70L19.47 32.67Q21.00 30.08 24.73 30.12L24.81 30.20L24.71 30.10Q28.09 30.28 29.57 32.14L29.39 31.96L29.41 31.98Q31.25 34.28 31.40 37.86L31.33 37.79L31.45 37.91Q31.41 38.97 31.33 40.57L31.41 40.65L31.36 40.59Q31.29 42.01 30.41 43.15L30.47 43.20L30.51 43.25Q28.70 44.90 24.36 45.17ZM29.78 47.62L29.85 47.69L29.92 47.76Q31.44 47.80 32.93 47.11L32.81 46.99L32.86 47.04Q34.06 45.85 34.10 43.91L33.99 43.80L34.01 43.81Q33.94 43.25 33.79 42.07L33.80 42.09L33.92 42.21Q33.73 41.40 33.62 40.49L33.73 40.60L33.75 40.62Q32.87 35.78 31.31 33.73L31.28 33.70L31.36 33.79Q31.32 33.71 30.52 32.83L30.42 32.72L30.47 32.78Q30.29 32.56 29.76 31.76L29.72 31.72L29.75 31.75Q28.05 29.71 24.70 29.75L24.70 29.75L24.70 29.75Q22.66 29.81 21.41 30.41L21.54 30.55L21.44 30.44Q21.09 25.91 20.49 22.72L20.46 22.69L20.57 22.80Q19.75 22.55 18.26 22.17L18.29 22.19L18.38 22.28Q18.13 21.43 17.67 19.98L17.76 20.07L17.73 20.03Q15.25 19.20 13.01 17.63L12.95 17.58L12.96 17.59Q16.67 25.72 16.67 34.51L16.70 34.54L16.80 34.64Q16.80 41.61 14.33 47.81L14.32 47.80L14.38 47.87Q14.94 47.40 16.27 46.83L16.37 46.93L16.32 46.88Q16.12 47.66 15.51 49.19L15.50 49.18L15.56 49.24Q17.37 48.15 20.15 47.62L20.18 47.65L20.59 45.85L20.66 45.92Q22.96 47.62 29.89 47.73ZM26.04 34.97L26.13 35.06L26.12 35.05Q27.22 35.12 27.75 35.50L27.59 35.34L27.58 35.33Q28.00 35.94 28.23 37.96L28.28 38.01L28.17 37.90Q28.34 39.74 27.08 41.05L27.09 41.06L27.20 41.17Q25.94 42.48 24.00 42.37L23.93 42.30L24.01 42.38Q23.13 42.57 21.65 42.08L21.56 41.99L21.65 42.07Q21.40 41.56 21.40 41.03L21.37 41.00L21.40 41.03Q21.43 37.98 22.99 36.38L22.92 36.30L22.92 36.35L22.93 36.35Q24.29 34.90 26.04 34.97Z"/><path fill="#77cce8" d="M42.14 54.59L42.17 54.62L42.10 54.55Q45.02 50.70 47.92 44.49L47.87 44.45L48.02 44.60Q44.77 37.93 38.68 29.86L38.74 29.91L38.81 29.98Q40.63 31.04 43.41 31.69L43.36 31.64L43.49 31.77Q46.89 36.31 49.33 41.53L49.45 41.65L49.37 41.57Q51.59 36.33 54.67 31.91L54.73 31.97L54.73 31.97Q56.82 31.51 58.91 30.71L59.04 30.84L58.88 30.68Q55.63 34.66 52.17 42.08L52.17 42.09L49.26 48.01L49.25 48.00Q47.72 51.04 45.97 53.67L45.99 53.69L46.08 53.78Q43.66 54.13 42.21 54.67ZM48.25 55.87L48.27 55.89L48.33 55.95Q50.16 53.17 51.60 49.89L51.54 49.83L54.19 43.42L54.17 43.40Q57.68 35.37 60.99 31.38L61.02 31.41L60.97 31.36Q59.76 32.17 57.86 32.85L57.87 32.87L58.83 31.39L58.77 31.32Q59.33 30.63 59.94 29.94L59.92 29.93L60.02 30.02Q57.33 31.07 54.48 31.52L54.49 31.53L54.44 31.49Q51.71 35.42 49.77 39.88L49.70 39.80L49.73 39.83Q48.08 36.51 46.29 33.69L46.32 33.72L46.38 33.78Q46.27 33.86 45.91 33.83L45.85 33.77L45.80 33.71Q45.54 33.78 45.35 33.78L45.36 33.79L45.28 33.71Q44.42 32.36 43.47 31.22L43.51 31.26L43.56 31.30Q40.35 30.61 37.61 28.90L37.67 28.96L37.61 28.90Q43.82 36.85 47.51 44.47L47.52 44.48L47.55 44.51Q45.49 49.68 41.41 55.32L41.28 55.18L41.37 55.27Q42.21 55.00 43.01 54.85L42.92 54.76L44.62 54.48L44.67 54.53Q44.00 55.20 42.82 56.84L42.73 56.74L42.71 56.73Q45.16 56.28 48.44 56.05Z"/><path d="M8 8 C80 54,88 36,168 53" stroke="#77e452" fill="none"/><path fill="#c4e368" d="M77.29 32.26L77.16 32.13L77.29 32.26Q78.04 32.21 79.45 32.06L79.46 32.07L79.32 31.93Q79.30 32.59 79.30 33.24L79.45 33.39L79.34 34.54L79.28 34.48Q78.56 34.60 77.72 34.67L77.63 34.58L77.70 34.65Q76.91 34.74 76.07 34.70L75.95 34.58L76.04 34.67Q73.16 40.81 69.73 45.41L69.73 45.41L69.65 45.33Q67.20 46.04 65.91 46.65L65.85 46.59L65.91 46.65Q70.13 41.05 73.18 34.77L73.03 34.63L70.44 34.66L70.47 34.69Q70.44 33.33 70.32 31.99L70.26 31.93L70.26 31.93Q72.15 32.07 74.21 32.07L74.29 32.15L76.30 28.57L76.23 28.50Q77.18 26.55 78.39 24.95L78.32 24.88L78.43 24.99Q76.81 25.08 75.21 25.08L75.25 25.12L75.16 25.03Q69.09 25.05 65.32 22.84L65.31 22.83L64.71 21.16L64.80 21.26Q64.36 20.32 63.98 19.44L63.99 19.46L64.08 19.55Q68.40 22.15 74.11 22.38L74.05 22.32L74.06 22.33Q79.15 22.51 84.29 20.53L84.42 20.66L84.37 20.61Q84.25 21.10 83.76 21.98L83.73 21.95L83.61 21.83Q79.98 26.58 77.13 32.10ZM85.18 23.17L85.24 23.23L86.34 21.32L86.33 21.32Q85.23 21.66 83.56 22.39L83.69 22.52L83.85 22.18L83.86 22.20Q84.00 22.06 84.11 21.95L84.02 21.86L83.98 21.82Q84.42 21.19 85.14 19.86L85.24 19.96L85.15 19.87Q79.77 22.10 74.02 21.87L74.11 21.96L74.03 21.88Q68.11 21.71 63.35 18.74L63.23 18.62L63.23 18.62Q64.25 20.48 65.09 23.15L65.24 23.29L65.24 23.29Q66.25 23.85 67.05 24.16L67.13 24.24L67.03 24.14Q67.19 24.48 67.64 26.34L67.75 26.45L67.76 26.46Q70.84 27.64 76.36 27.49L76.32 27.45L76.31 27.44Q76.14 28.15 74.16 31.91L74.01 31.76L74.04 31.79Q72.08 31.89 70.10 31.70L69.99 31.59L70.06 31.66Q70.17 32.53 70.17 33.40L70.14 33.37L70.16 35.10L71.82 35.09L71.88 36.56L71.74 36.42Q67.93 43.91 65.15 47.49L65.02 47.37L65.09 47.43Q66.64 46.62 68.28 46.13L68.25 46.10L68.28 46.13Q67.57 47.02 66.20 48.74L66.33 48.87L66.21 48.74Q69.45 47.72 71.88 47.49L71.89 47.49L71.92 47.52Q74.89 43.80 78.02 37.02L77.85 36.85L81.43 37.20L81.44 37.21Q81.27 36.20 81.27 35.29L81.22 35.24L81.34 33.57L81.26 33.49Q81.03 33.52 80.47 33.56L80.45 33.53L80.37 33.45Q79.99 33.66 79.72 33.66L79.71 33.65L79.63 33.57Q79.67 33.50 79.71 33.35L79.65 33.29L79.64 33.01L79.76 33.13Q82.09 27.81 85.17 23.16Z"/><path fill="#9be254" d="M96.16 45.38L96.24 45.46L96.18 45.41Q92.05 45.58 91.06 43.26L91.11 43.31L91.04 43.23Q91.88 42.36 93.44 40.57L93.42 40.55L93.32 40.45Q93.97 42.62 96.97 42.73L96.84 42.59L96.98 42.74Q100.36 42.81 102.00 41.48L101.99 41.47L101.86 41.34Q103.43 39.90 103.36 37.20L103.27 37.11L103.27 37.12Q103.02 31.96 98.23 32.19L98.36 32.32L98.37 32.33Q95.55 32.48 93.80 33.73L93.69 33.62L93.37 33.46L93.21 33.37L93.17 33.33Q93.56 30.22 93.45 27.48L93.45 27.48L93.53 27.56Q93.43 24.95 93.08 21.64L92.92 21.47L92.99 21.54Q96.73 22.58 100.54 22.47L100.36 22.29L100.46 22.38Q104.34 22.38 107.91 21.12L107.90 21.11L107.25 22.56L107.36 22.67Q107.06 23.43 106.87 24.27L106.78 24.18L106.83 24.23Q103.56 25.11 99.68 25.11L99.68 25.11L99.69 25.12Q98.34 25.21 96.85 25.06L96.89 25.10L96.91 25.12Q96.71 25.68 96.37 30.14L96.47 30.24L96.50 30.27Q97.19 29.66 99.24 29.51L99.37 29.64L99.22 29.48Q103.03 29.80 104.48 31.47L104.41 31.41L104.42 31.41Q105.95 33.09 106.22 36.94L106.03 36.75L106.05 36.77Q106.32 40.97 105.11 42.99L105.10 42.98L105.11 42.99Q103.16 44.96 99.85 45.19L99.92 45.26L99.90 45.24Q98.75 45.16 96.09 45.31ZM102.17 47.63L102.22 47.68L102.29 47.75Q105.70 47.80 107.60 46.70L107.53 46.63L107.47 46.56Q108.53 45.12 108.53 43.03L108.57 43.06L108.53 43.02Q108.48 39.88 107.53 35.77L107.64 35.88L107.64 35.89Q107.19 34.07 105.97 32.66L105.88 32.57L106.02 32.74L105.82 32.46L105.44 32.24L105.45 32.25Q105.17 31.55 104.52 30.87L104.45 30.80L104.51 30.90L104.41 30.79Q103.07 29.30 99.37 29.30L99.33 29.25L98.95 29.13L99.01 29.20Q99.06 28.60 99.25 27.50L99.23 27.48L99.38 27.62Q104.29 27.67 108.33 26.03L108.34 26.04L108.38 26.08Q108.78 24.65 109.73 21.84L109.63 21.74L107.65 22.80L107.55 22.70Q107.95 21.58 108.45 20.44L108.43 20.42L108.52 20.52Q104.58 21.86 100.47 21.94L100.55 22.02L100.45 21.92Q96.33 22.03 92.37 20.92L92.37 20.92L92.47 21.02Q93.01 25.30 93.01 29.71L93.02 29.72L93.01 29.71Q93.05 31.65 92.93 33.55L93.08 33.70L93.03 33.65Q93.31 33.86 93.88 34.16L93.86 34.14L93.85 34.13Q94.17 33.88 94.82 33.54L94.84 33.56L94.91 33.63Q94.77 34.29 94.55 35.81L94.51 35.78L94.47 35.74Q95.00 36.04 95.42 36.26L95.39 36.24L95.37 36.22Q98.18 34.50 100.05 34.50L100.11 34.57L100.00 34.46Q101.41 34.53 102.59 35.18L102.54 35.13L102.60 35.19Q102.80 36.07 102.84 37.02L103.02 37.21L102.96 37.15Q103.00 39.70 101.98 40.81L101.92 40.75L102.05 40.88Q100.56 41.98 98.31 42.21L98.46 42.35L98.43 42.32Q97.43 42.35 96.74 42.27L96.81 42.34L96.78 42.32Q95.93 42.18 95.16 41.84L95.10 41.77L95.10 41.59L95.00 41.71L95.07 41.78Q94.14 41.16 93.61 39.82L93.61 39.82L93.66 39.87Q92.38 41.33 90.70 43.47L90.63 43.39L90.66 43.42Q90.89 43.99 91.72 44.95L91.82 45.05L91.71 44.93Q92.89 46.88 95.71 47.37L95.57 47.23L95.58 47.24Q96.76 47.47 102.13 47.58Z"/><path fill="#984ae7" d="M123.07 44.83L123.16 44.92L123.19 44.95Q119.01 44.38 117.18 42.93L117.09 42.85L117.22 42.98Q115.33 41.47 114.91 38.46L114.84 38.39L114.82 38.37Q114.82 38.03 114.48 33.27L114.51 33.30L114.59 33.38Q114.50 32.08 114.43 30.82L114.61 31.00L114.47 30.86Q114.39 25.91 116.60 24.16L116.51 24.07L116.58 24.14Q119.29 22.09 127.05 21.40L127.07 21.41L126.93 21.28Q128.23 21.09 129.86 21.13L129.85 21.12L130.00 21.27Q129.93 21.20 132.90 21.20L132.88 21.18L132.94 21.24Q133.70 21.16 135.41 21.31L135.45 21.35L135.43 21.33Q134.96 22.30 133.93 25.39L133.95 25.41L133.94 25.39Q131.84 24.17 128.83 24.17L128.76 24.10L128.76 24.10Q128.15 24.25 127.35 24.33L127.24 24.21L127.24 24.21Q122.08 24.62 119.57 26.60L119.72 26.75L119.74 26.76Q117.59 28.23 117.44 31.58L117.43 31.57L117.55 31.69Q117.36 32.15 117.39 33.40L117.44 33.45L117.46 33.47Q117.54 38.28 119.94 40.37L120.00 40.42L119.97 40.39Q122.20 42.39 127.18 42.70L127.12 42.63L127.23 42.75Q130.31 42.86 133.32 41.07L133.32 41.07L133.23 40.97Q133.84 43.72 134.45 45.09L134.49 45.13L134.43 45.07Q132.38 45.38 130.74 45.34L130.76 45.36L130.82 45.42Q126.26 45.27 123.14 44.89ZM138.21 48.59L138.23 48.60L138.22 48.60Q136.58 45.73 135.89 43.14L135.79 43.04L135.75 43.00Q135.43 43.37 134.44 43.75L134.38 43.69L134.33 43.64Q133.96 42.81 133.77 41.98L133.89 42.10L133.57 40.44L133.58 40.45Q130.27 42.48 127.15 42.36L127.11 42.32L127.01 42.22Q122.90 42.18 120.58 40.43L120.43 40.28L120.49 40.34Q119.42 38.59 119.50 35.66L119.34 35.50L119.43 35.59Q119.60 31.12 122.07 28.99L122.15 29.06L122.07 28.98Q124.18 27.05 128.86 26.44L128.88 26.46L128.92 26.51Q129.77 26.44 130.50 26.44L130.31 26.25L130.36 26.31Q133.18 26.35 135.27 27.87L135.25 27.84L135.34 27.94Q135.72 25.69 136.94 22.46L137.04 22.56L137.05 22.57Q136.65 22.43 136.10 22.38L136.16 22.43L136.08 22.35Q135.55 22.33 135.29 22.33L135.44 22.48L135.40 22.44Q135.57 21.89 136.03 20.90L135.96 20.83L135.90 20.76Q135.80 20.90 133.30 20.82L133.37 20.88L133.31 20.83Q130.68 20.61 130.03 20.65L130.05 20.67L130.22 20.84Q119.62 21.09 116.15 23.67L116.25 23.77L116.08 23.60Q114.18 25.55 114.18 29.47L114.20 29.49L114.17 29.45Q114.12 30.51 114.23 33.21L114.27 33.25L114.27 33.25Q114.29 36.69 114.51 38.41L114.60 38.49L114.67 38.56Q115.07 41.70 116.67 43.23L116.57 43.13L116.59 43.15Q117.03 43.77 118.28 44.91L118.25 44.88L118.31 44.94Q121.57 46.72 126.82 47.48L126.91 47.57L126.95 47.60Q133.37 48.54 138.36 48.73Z"/></svg>