<svg xmlns="http://www.w3.org/2000/svg" width="180" height="60" viewBox="0,0,180,60"><rect width="100%" height="100%" fill="#eef3fc"/><path d="M11 41 C71 21,70 47,175 43" stroke="#dd4067" fill="none"/><path d="M3 41 C77 3,89 30,172 15" stroke="#b3d844" fill="none"/><path fill="#7ddf5c" d="M47.23 32.64L47.22 32.62L47.19 32.60Q44.93 32.58 43.65 34.08L43.82 34.25L43.70 34.13Q42.37 35.58 42.25 37.86L42.40 38.00L42.35 37.96Q42.25 40.63 43.08 41.58L43.17 41.67L43.14 41.64Q44.14 42.80 46.47 42.65L46.49 42.67L46.41 42.58Q51.07 42.30 51.45 39.29L51.42 39.26L51.46 39.30Q51.58 38.51 51.58 37.71L51.52 37.65L51.69 37.82Q51.54 35.69 50.40 34.17L50.36 34.13L50.49 34.26Q49.21 32.63 47.27 32.67ZM52.14 42.80L52.07 42.73L52.15 42.81Q50.52 44.79 46.14 45.02L46.32 45.20L46.29 45.17Q42.10 45.32 40.47 44.22L40.48 44.24L40.43 44.19Q39.48 43.28 39.33 41.56L39.35 41.59L39.29 41.53Q39.33 40.50 39.52 38.63L39.54 38.65L39.53 38.64Q39.94 34.25 41.16 32.43L41.10 32.37L41.16 32.43Q42.87 30.03 46.72 30.07L46.61 29.96L46.66 30.01Q49.07 29.94 51.35 32.27L51.50 32.42L51.36 32.28Q51.51 26.48 53.11 19.97L53.11 19.97L53.16 20.02Q55.01 19.55 56.88 18.72L56.89 18.73L56.97 18.81Q54.24 25.29 53.97 32.29L54.10 32.43L54.02 32.35Q53.66 39.44 55.79 46.03L55.87 46.11L55.94 46.18Q54.17 45.44 52.46 45.06L52.48 45.08L52.51 45.11Q52.23 43.84 52.08 42.74ZM55.08 48.18L55.06 48.15L55.05 48.15Q57.10 48.67 59.65 50.20L59.73 50.27L59.80 50.34Q55.92 43.11 55.77 34.81L55.87 34.91L55.80 34.85Q55.76 26.74 58.85 19.35L58.93 19.44L58.76 19.27Q58.21 19.86 56.77 20.51L56.63 20.38L56.68 20.43Q57.10 19.36 57.71 18.14L57.74 18.17L57.73 18.17Q55.18 19.07 52.74 19.64L52.76 19.67L52.81 19.71Q51.36 25.49 51.09 31.59L51.01 31.50L51.01 31.51Q49.09 29.66 46.58 29.55L46.74 29.71L46.56 29.53Q43.20 29.48 41.30 31.57L41.31 31.59L41.39 31.67Q39.67 34.02 39.25 38.70L39.19 38.64L39.26 38.71Q38.95 41.41 38.95 41.83L38.92 41.80L38.96 41.84Q38.97 43.53 40.11 44.59L40.08 44.55L40.17 44.65Q40.30 44.78 40.49 44.85L40.47 44.84L41.06 45.61L40.98 45.53Q42.06 47.00 45.03 47.27L45.04 47.27L44.99 47.22Q47.21 47.38 48.58 47.46L48.59 47.47L48.50 47.38Q52.66 47.55 54.38 46.22L54.53 46.37L54.54 46.38Q54.74 47.15 55.20 48.29ZM48.80 34.89L48.92 35.01L48.92 35.01Q49.86 34.92 50.70 35.42L50.81 35.53L50.65 35.37Q51.22 36.73 51.29 37.76L51.31 37.79L51.24 37.72Q51.59 41.98 46.56 42.32L46.55 42.31L46.61 42.37Q45.67 42.35 44.57 42.08L44.49 42.00L44.54 42.05Q44.41 41.54 44.34 41.01L44.17 40.84L44.29 40.97Q44.19 40.26 44.23 39.65L44.15 39.57L44.24 39.66Q44.61 36.30 47.24 35.31L47.17 35.24L47.19 35.26Q48.21 34.95 48.90 34.99Z"/><path fill="#58e3c0" d="M19.46 38.38L19.42 38.35L19.37 38.29Q19.15 41.04 17.97 45.68L18.04 45.76L18.06 45.77Q16.24 46.28 14.64 47.08L14.58 47.02L14.63 47.07Q17.29 40.10 17.02 32.67L17.06 32.71L16.95 32.60Q16.70 25.23 13.61 18.49L13.57 18.45L13.72 18.59Q15.57 19.76 17.43 20.33L17.42 20.32L17.38 20.27Q19.55 27.28 19.55 33.94L19.66 34.05L19.59 33.99Q19.67 35.51 19.59 36.99L19.43 36.83L19.51 36.92Q20.77 35.81 25.99 30.86L25.94 30.81L25.95 30.82Q26.99 30.76 27.98 30.68L27.89 30.59L30.11 30.57L30.02 30.48Q26.96 33.59 22.66 37.36L22.68 37.38L22.54 37.24Q25.95 40.03 32.42 45.86L32.37 45.81L32.35 45.79Q29.81 45.08 26.84 44.89L26.80 44.85L26.85 44.90Q24.24 42.71 19.37 38.29ZM29.36 47.56L29.37 47.57L29.23 47.43Q34.08 48.39 37.20 50.34L37.05 50.19L37.15 50.29Q35.86 48.88 33.23 46.49L33.39 46.64L33.22 46.47Q33.50 46.60 33.77 46.72L33.73 46.68L33.78 46.72Q31.71 44.74 29.47 42.83L29.54 42.91L25.11 39.01L24.96 38.86Q29.98 34.71 32.42 31.81L32.45 31.84L32.52 31.91Q31.31 31.99 28.83 32.26L28.77 32.20L28.68 32.11Q30.43 30.82 31.12 29.98L31.10 29.96L30.93 29.79Q28.32 30.45 25.84 30.45L25.86 30.47L25.72 30.32Q24.37 31.68 21.63 34.35L21.54 34.26L21.64 34.35Q21.71 28.64 20.72 22.82L20.59 22.69L20.59 22.69Q19.89 22.52 18.41 22.25L18.38 22.23L18.41 22.26Q18.24 21.52 17.78 20.03L17.73 19.98L17.77 20.02Q15.16 19.23 12.91 17.67L12.93 17.69L12.89 17.65Q16.29 24.44 16.63 32.55L16.76 32.68L16.67 32.58Q17.10 40.59 14.09 47.82L14.06 47.79L14.02 47.75Q14.76 47.51 16.10 46.86L16.08 46.84L16.15 46.92Q15.86 47.69 15.21 49.13L15.23 49.15L15.23 49.16Q17.97 47.97 20.10 47.59L20.12 47.60L20.13 47.61Q20.75 45.16 21.25 40.89L21.24 40.89L21.16 40.81Q23.88 43.18 29.32 47.52Z"/><path d="M12 31 C98 36,88 34,170 46" stroke="#8ecfe5" fill="none"/><path fill="#6ddd89" d="M82.00 35.26L82.12 35.37L82.17 35.43Q82.16 34.93 82.13 34.51L82.10 34.48L82.14 34.52Q82.10 34.18 81.80 33.99L81.76 33.96L81.77 33.96Q81.13 33.48 80.26 33.63L80.08 33.46L80.14 33.52Q79.20 33.64 77.56 34.74L77.44 34.62L77.55 34.73Q76.07 35.57 76.07 36.75L76.12 36.81L76.10 36.78Q75.99 37.93 75.99 41.24L76.10 41.35L76.14 41.39Q75.95 43.79 76.11 45.81L76.16 45.87L76.10 45.80Q74.55 45.97 74.55 45.97L74.48 45.90L74.41 45.83Q73.56 45.93 72.84 46.00L72.69 45.86L72.79 45.96Q73.24 43.48 73.32 41.23L73.28 41.19L73.22 41.13Q73.42 36.54 72.77 35.24L72.73 35.20L72.79 35.26Q72.46 34.62 71.89 34.32L71.91 34.34L71.83 34.26Q71.02 33.56 69.45 33.45L69.54 33.53L69.59 33.58Q67.43 33.22 66.90 34.81L66.98 34.90L66.96 34.88Q66.75 35.31 66.86 35.81L66.96 35.91L67.01 35.95Q67.48 38.52 67.14 41.29L67.22 41.38L67.17 41.32Q66.87 44.15 65.46 46.58L65.49 46.61L65.60 46.73Q64.48 46.78 62.38 47.20L62.44 47.25L62.44 47.26Q64.85 43.92 64.85 39.62L64.86 39.63L64.99 39.76Q64.97 33.87 60.93 29.64L60.80 29.52L60.87 29.58Q61.59 29.85 62.55 30.08L62.49 30.02L64.32 30.52L64.37 30.57Q64.72 31.08 65.60 32.75L65.64 32.79L65.65 32.80Q65.82 30.91 68.25 30.88L68.18 30.80L68.24 30.86Q68.40 30.83 69.39 30.91L69.49 31.01L69.37 30.89Q74.43 31.26 75.57 34.08L75.51 34.02L75.64 34.16Q77.23 31.36 82.26 30.83L82.22 30.79L82.36 30.93Q83.07 30.77 83.95 30.88L83.86 30.80L83.85 30.79Q86.12 31.04 85.97 32.60L85.97 32.61L85.94 32.57Q85.86 33.22 85.60 33.98L85.70 34.09L85.66 34.04Q84.15 36.96 84.38 40.50L84.48 40.59L84.47 40.58Q84.56 43.95 86.46 46.76L86.45 46.75L86.48 46.78Q84.77 46.40 82.94 46.17L82.96 46.19L83.02 46.25Q81.89 43.79 81.70 41.01L81.58 40.89L81.70 41.01Q81.41 38.06 82.06 35.32ZM82.78 46.62L82.85 46.69L82.74 46.58Q83.61 46.80 84.94 46.99L84.83 46.88L84.85 46.90Q85.30 47.54 86.44 48.95L86.44 48.94L86.44 48.94Q89.47 49.62 91.56 50.27L91.54 50.24L91.61 50.31Q86.56 46.37 86.30 39.86L86.27 39.83L86.16 39.73Q86.19 37.74 86.80 35.83L86.82 35.85L86.80 35.83Q87.07 35.00 87.07 34.28L86.97 34.17L86.97 34.17Q87.00 33.29 86.39 32.72L86.35 32.68L86.47 32.76L86.29 32.58Q86.35 32.07 86.28 31.58L86.45 31.75L86.39 31.69Q86.17 31.05 85.71 30.78L85.81 30.88L85.74 30.81Q85.12 30.38 84.24 30.34L84.24 30.34L84.28 30.38Q81.46 30.30 78.79 31.25L78.67 31.13L78.73 31.19Q76.77 31.89 75.59 33.30L75.60 33.31L75.57 33.28Q74.03 30.83 69.19 30.48L69.28 30.57L69.12 30.41Q68.54 30.47 68.12 30.47L68.02 30.38L68.05 30.41Q66.06 30.47 65.45 31.73L65.49 31.77L65.46 31.74Q65.21 31.30 64.53 30.23L64.51 30.22L64.54 30.25Q61.93 29.58 59.95 28.93L59.93 28.91L60.08 29.06Q64.64 33.36 64.64 39.64L64.69 39.69L64.58 39.57Q64.68 44.40 61.83 47.86L61.84 47.87L61.77 47.80Q62.25 47.68 62.75 47.60L62.65 47.50L63.66 47.37L63.60 47.32Q62.96 48.42 61.86 49.64L61.99 49.78L61.85 49.64Q63.46 49.30 66.58 48.69L66.75 48.86L66.73 48.85Q69.30 44.63 69.30 39.72L69.28 39.70L69.38 39.80Q69.32 38.94 69.24 38.11L69.24 38.10L69.33 38.20Q69.20 37.38 70.19 36.58L70.16 36.55L70.08 36.51L70.23 36.66Q70.64 36.00 71.82 35.89L71.96 36.03L71.86 35.93Q72.34 35.99 72.65 35.99L72.65 36.00L72.81 36.35L72.66 36.19Q73.07 39.04 72.95 41.40L72.81 41.26L72.85 41.29Q72.82 43.67 72.33 46.33L72.29 46.30L72.36 46.37Q73.31 46.29 73.31 46.29L73.37 46.35L73.30 46.28Q74.70 46.23 74.36 46.23L74.37 46.25L74.29 46.17Q74.44 46.81 74.41 47.27L74.48 47.34L74.37 47.24Q74.43 47.79 74.43 48.28L74.44 48.29L76.82 48.20L76.81 48.19Q78.01 48.14 79.27 48.21L79.24 48.18L79.40 48.34Q77.75 44.52 77.94 38.58L78.00 38.64L77.98 38.62Q78.12 37.62 79.30 36.86L79.16 36.71L79.24 36.80Q80.23 36.07 81.48 35.88L81.32 35.72L81.60 35.69L81.60 35.69Q81.20 37.66 81.20 39.63L81.25 39.69L81.27 39.70Q81.20 43.40 82.72 46.56ZM77.38 35.20L77.39 34.98L77.32 35.26L77.26 35.08Z"/><path fill="#e41fe4" d="M151.83 25.07L151.86 25.10L151.86 25.10Q147.47 25.01 143.77 24.02L143.95 24.19L143.90 24.15Q145.32 28.61 145.51 33.45L145.50 33.44L145.50 33.44Q145.71 38.25 144.49 42.86L144.48 42.85L144.46 42.83Q147.44 42.38 150.94 42.23L150.86 42.15L150.92 42.21Q154.82 41.99 156.61 39.56L156.55 39.50L156.66 39.61Q158.12 37.49 158.31 33.38L158.22 33.29L158.27 33.34Q158.46 31.70 158.00 29.99L157.97 29.96L157.83 29.81Q156.59 25.11 151.87 25.11ZM139.97 47.13L140.02 47.19L139.94 47.10Q142.79 41.39 142.79 34.69L142.81 34.71L142.85 34.75Q142.96 26.32 138.65 19.32L138.59 19.26L138.51 19.17Q143.74 21.81 152.00 22.00L152.11 22.11L152.06 22.07Q161.00 22.32 161.34 29.48L161.31 29.45L161.34 29.48Q161.46 32.19 161.42 33.64L161.33 33.54L161.36 33.57Q161.37 38.35 160.54 40.52L160.38 40.36L160.41 40.39Q160.02 41.53 159.26 42.36L159.24 42.34L159.26 42.36Q157.86 43.85 155.23 44.35L155.26 44.38L155.24 44.36Q153.73 44.71 150.72 44.93L150.63 44.85L150.76 44.97Q144.60 45.41 140.00 47.16ZM157.89 47.00L157.99 47.11L157.96 47.08Q160.63 46.66 162.27 45.18L162.19 45.10L162.31 45.22Q163.41 43.35 163.37 40.61L163.34 40.57L163.43 40.67Q163.54 39.40 163.38 35.90L163.38 35.90L162.88 31.21L162.84 31.17Q162.79 29.03 161.84 26.93L161.85 26.95L161.80 26.89Q161.35 26.02 160.66 25.38L160.65 25.37L160.48 25.04L160.50 25.06Q158.80 22.10 154.38 21.72L154.57 21.91L154.43 21.77Q151.73 21.62 144.72 20.89L144.84 21.01L144.70 20.88Q141.53 20.52 137.84 18.50L137.80 18.47L137.87 18.53Q142.58 25.79 142.58 34.55L142.58 34.55L142.64 34.61Q142.63 41.60 139.28 47.77L139.37 47.86L139.20 47.69Q139.90 47.45 141.24 46.95L141.21 46.92L141.36 47.07Q140.92 47.82 140.05 49.30L140.12 49.37L140.01 49.26Q143.15 48.30 146.50 47.80L146.43 47.73L146.46 47.76Q148.50 47.40 152.15 47.28L152.22 47.35L152.26 47.39Q156.08 47.22 157.91 47.03ZM158.01 33.46L157.92 33.36L157.88 33.33Q157.53 41.35 150.83 41.73L150.88 41.79L150.78 41.68Q148.95 41.92 146.90 42.18L146.95 42.24L146.87 42.15Q147.56 38.28 147.56 34.62L147.58 34.64L147.53 34.59Q147.62 30.99 146.90 27.14L146.87 27.12L146.78 27.02Q149.11 27.45 153.79 27.45L153.73 27.39L153.76 27.42Q155.18 27.31 156.81 28.27L156.76 28.21L156.83 28.28Q158.08 30.52 157.93 33.38Z"/><path fill="#87e727" d="M98.78 34.17L98.74 34.13L98.88 34.26Q96.91 34.16 95.69 35.49L95.69 35.49L95.62 35.42Q94.52 36.87 94.37 38.77L94.31 38.72L94.30 38.71Q94.18 40.91 95.40 41.92L95.31 41.83L95.29 41.81Q96.65 42.96 98.79 42.89L98.81 42.92L98.75 42.85Q100.99 42.62 101.94 41.67L101.98 41.70L102.09 41.81Q103.12 40.37 103.00 38.54L102.85 38.39L102.83 38.36Q102.78 36.56 101.69 35.37L101.65 35.33L101.79 35.46Q100.59 34.15 98.76 34.15ZM98.78 24.76L98.75 24.73L98.68 24.66Q97.38 24.66 96.05 25.15L96.08 25.19L95.95 25.05Q94.72 25.92 94.95 27.79L94.96 27.79L95.02 27.85Q95.54 31.61 98.89 31.61L98.82 31.54L98.76 31.48Q100.39 31.74 101.38 30.59L101.32 30.54L101.32 30.54Q102.40 29.49 102.44 27.93L102.45 27.94L102.38 27.86Q102.39 26.05 101.66 25.44L101.70 25.47L101.81 25.58Q100.15 24.76 98.86 24.84ZM98.42 45.22L98.52 45.33L95.39 45.24L95.39 45.24Q93.97 45.35 92.64 44.47L92.67 44.50L92.59 44.42Q91.20 43.26 91.36 40.41L91.41 40.46L91.46 40.51Q91.84 33.59 95.46 32.60L95.36 32.50L95.50 32.64Q93.22 31.73 91.89 26.36L91.75 26.22L91.74 26.21Q91.57 24.98 91.65 24.18L91.58 24.11L91.63 24.16Q91.92 22.01 95.61 21.97L95.62 21.99L95.52 21.88Q99.86 21.92 101.31 22.11L101.16 21.97L101.15 21.96Q105.13 22.62 105.58 24.64L105.45 24.50L105.53 24.59Q105.70 25.25 105.70 25.63L105.56 25.49L105.72 25.65Q105.67 26.29 105.48 26.90L105.43 26.85L105.40 26.81Q104.85 31.10 101.92 32.63L101.97 32.67L101.87 32.57Q105.34 33.34 105.83 38.63L106.00 38.79L105.99 38.79Q105.86 38.81 105.90 40.10L106.05 40.26L105.94 40.14Q106.03 42.90 104.43 43.97L104.50 44.03L104.46 43.99Q103.08 44.86 98.51 45.32ZM100.87 47.71L100.77 47.61L104.13 47.70L104.22 47.79Q105.93 47.86 107.45 47.14L107.35 47.04L107.44 47.13Q108.52 46.34 108.60 44.48L108.53 44.42L108.67 44.55Q108.72 43.46 108.34 41.51L108.14 41.32L108.19 41.37Q107.33 36.78 105.24 34.91L105.14 34.81L105.10 34.59L104.88 34.29L104.74 34.04L104.69 33.99Q106.33 32.62 107.25 28.47L107.28 28.50L107.27 28.49Q107.25 28.10 107.33 27.26L107.33 27.26L107.38 27.31Q107.34 26.51 107.26 25.90L107.23 25.87L107.30 25.93Q107.23 24.57 106.05 24.08L105.98 24.00L106.09 24.08L105.87 23.93L105.91 23.97Q105.66 23.27 104.48 22.47L104.40 22.39L104.36 22.31L104.42 22.37Q102.37 21.61 98.30 21.42L98.35 21.47L98.40 21.53Q96.77 21.35 95.40 21.46L95.49 21.55L95.43 21.49Q94.73 21.62 93.43 21.78L93.29 21.63L93.40 21.74Q91.33 21.99 91.10 23.63L91.18 23.71L91.16 23.69Q91.18 24.24 91.22 25.04L91.17 25.00L91.21 25.04Q91.36 25.61 91.93 27.97L91.81 27.84L91.80 27.83Q92.76 31.23 94.51 32.56L94.45 32.50L94.41 32.47L94.51 32.56Q91.63 33.75 91.09 38.93L91.14 38.97L91.25 39.08Q90.97 41.20 90.97 42.12L91.06 42.21L90.96 42.11Q91.03 43.88 92.21 44.80L92.22 44.82L92.34 44.94Q92.41 44.97 92.68 45.16L92.68 45.16L92.65 45.13Q93.76 47.49 100.88 47.72ZM100.52 36.63L100.43 36.54L100.46 36.57Q101.37 36.49 102.24 36.94L102.22 36.92L102.17 36.87Q102.66 37.97 102.63 38.51L102.58 38.46L102.57 38.45Q102.51 38.66 102.51 38.97L102.64 39.09L102.53 38.98Q102.53 41.35 100.25 42.18L100.37 42.30L100.35 42.28Q99.55 42.58 98.75 42.47L98.72 42.44L98.80 42.53Q97.54 42.49 96.40 42.03L96.47 42.10L96.57 42.19Q96.30 41.55 96.38 40.56L96.26 40.44L96.27 40.45Q96.40 38.83 97.60 37.61L97.70 37.71L97.64 37.65Q98.86 36.45 100.46 36.57ZM100.75 27.15L100.60 27.00L100.59 26.99Q101.48 26.97 102.02 27.12L101.95 27.06L101.99 27.90L101.90 27.81Q101.98 29.29 101.06 30.30L101.01 30.25L101.06 30.29Q100.22 31.38 98.85 31.19L98.83 31.17L98.79 31.13Q97.90 31.23 97.48 31.00L97.31 30.83L97.34 30.86Q97.27 30.56 97.16 29.88L97.27 29.99L97.17 29.89Q96.89 28.47 98.11 27.63L98.23 27.76L98.18 27.71Q99.35 27.12 100.76 27.16Z"/><path fill="#e76384" d="M123.43 32.54L123.58 32.70L123.54 32.66Q121.37 32.73 120.09 34.24L120.09 34.23L120.11 34.26Q118.84 35.77 118.73 38.05L118.54 37.86L118.69 38.01Q118.50 40.60 119.34 41.56L119.35 41.57L119.36 41.58Q120.48 42.85 122.80 42.70L122.83 42.72L122.80 42.69Q127.46 42.40 127.84 39.39L127.85 39.41L127.83 39.38Q127.89 38.53 127.89 37.73L127.85 37.69L127.95 37.80Q127.90 35.76 126.76 34.24L126.72 34.20L126.62 34.10Q125.39 32.53 123.45 32.57ZM128.28 42.65L128.31 42.68L128.42 42.79Q126.80 44.79 122.42 45.02L122.43 45.03L122.44 45.04Q118.37 45.30 116.73 44.20L116.61 44.08L116.60 44.07Q115.73 43.24 115.58 41.53L115.54 41.48L115.64 41.58Q115.54 40.42 115.73 38.55L115.83 38.66L115.76 38.59Q116.16 34.19 117.38 32.37L117.46 32.45L117.52 32.50Q119.09 29.96 122.94 30.00L122.92 29.98L122.95 30.02Q125.52 30.11 127.80 32.43L127.73 32.35L127.72 32.35Q127.86 26.55 129.46 20.04L129.50 20.08L129.49 20.07Q131.37 19.62 133.23 18.79L133.19 18.75L133.22 18.78Q130.49 25.26 130.23 32.26L130.41 32.44L130.30 32.34Q129.99 39.49 132.12 46.08L132.16 46.11L132.09 46.04Q130.52 45.50 128.81 45.12L128.79 45.10L128.90 45.22Q128.58 43.91 128.43 42.80ZM131.34 48.15L131.45 48.26L131.36 48.17Q133.38 48.67 135.93 50.19L136.02 50.28L136.00 50.26Q132.25 43.16 132.10 34.86L132.19 34.95L132.19 34.95Q132.13 26.82 135.21 19.43L135.16 19.39L135.12 19.34Q134.52 19.88 133.07 20.53L132.91 20.37L133.05 20.51Q133.26 19.24 133.87 18.02L134.03 18.17L133.91 18.05Q131.49 19.10 129.05 19.67L129.02 19.64L129.04 19.65Q127.71 25.56 127.44 31.65L127.36 31.57L127.38 31.59Q125.48 29.77 122.97 29.66L123.03 29.72L122.91 29.59Q119.55 29.54 117.64 31.64L117.63 31.62L117.66 31.65Q115.89 33.95 115.47 38.63L115.50 38.66L115.45 38.62Q115.12 41.30 115.12 41.72L115.12 41.71L115.17 41.77Q115.21 43.48 116.35 44.55L116.34 44.53L116.35 44.54Q116.68 44.87 116.87 44.94L116.84 44.92L117.39 45.66L117.25 45.51Q118.32 46.96 121.28 47.23L121.23 47.17L121.18 47.13Q123.43 47.32 124.80 47.39L124.90 47.50L124.85 47.45Q129.03 47.63 130.74 46.29L130.82 46.38L130.80 46.35Q130.96 47.09 131.42 48.23ZM125.03 34.83L125.08 34.88L125.06 34.86Q126.25 35.03 127.09 35.53L127.10 35.53L126.99 35.43Q127.53 36.76 127.61 37.79L127.54 37.73L127.51 37.69Q127.87 41.97 122.84 42.32L122.81 42.29L122.91 42.38Q121.89 42.28 120.79 42.01L120.79 42.02L120.92 42.15Q120.58 41.42 120.50 40.89L120.62 41.01L120.44 40.83Q120.50 40.28 120.54 39.67L120.60 39.73L120.57 39.71Q120.88 36.29 123.51 35.30L123.44 35.22L123.51 35.30Q124.49 34.94 125.18 34.98Z"/></svg>